<?xml version="1.0" encoding="utf-8"?>
<!-- Generator: Adobe Illustrator 27.0.1, SVG Export Plug-In . SVG Version: 6.00 Build 0)  -->
<svg version="1.1" id="Layer_1" xmlns="http://www.w3.org/2000/svg" xmlns:xlink="http://www.w3.org/1999/xlink" x="0px" y="0px"
	 viewBox="0 0 248 158" style="enable-background:new 0 0 248 158;" xml:space="preserve">
<style type="text/css">
	.st0{fill:#F6F6F7;}
	.st1{fill:#FEEAE2;}
	.st2{fill:#FF6C2F;}
</style>
<rect class="st0" width="248" height="158"/>
<path class="st1" d="M166,9h12c2.2,0,4,1.8,4,4l0,0c0,2.2-1.8,4-4,4h-12c-2.2,0-4-1.8-4-4l0,0C162,10.8,163.8,9,166,9z"/>
<path class="st1" d="M13,9h27c2.2,0,4,1.8,4,4l0,0c0,2.2-1.8,4-4,4H13c-2.2,0-4-1.8-4-4l0,0C9,10.8,10.8,9,13,9z"/>
<path class="st1" d="M192,9h12c2.2,0,4,1.8,4,4l0,0c0,2.2-1.8,4-4,4h-12c-2.2,0-4-1.8-4-4l0,0C188,10.8,189.8,9,192,9z"/>
<path class="st1" d="M218,9h12c2.2,0,4,1.8,4,4l0,0c0,2.2-1.8,4-4,4h-12c-2.2,0-4-1.8-4-4l0,0C214,10.8,215.8,9,218,9z"/>
<path class="st2" d="M15,29h218c2.2,0,4,1.8,4,4v17c0,2.2-1.8,4-4,4H15c-2.2,0-4-1.8-4-4V33C11,30.8,12.8,29,15,29z"/>
<g>
	<g>
		<path class="st1" d="M119.1,129.9c-2.8,0-5.1,2.3-5.1,5.1c0,2.8,2.3,5.1,5.1,5.1c2.8,0,5.1-2.3,5.1-5.1
			C124.2,132.1,121.9,129.9,119.1,129.9z M119.1,137c-1.1,0-2.1-0.9-2.1-2.1c0-1.1,0.9-2.1,2.1-2.1c1.1,0,2.1,0.9,2.1,2.1
			C121.2,136.1,120.3,137,119.1,137z"/>
		<path class="st1" d="M141.9,129.9c-2.8,0-5.1,2.3-5.1,5.1c0,2.8,2.3,5.1,5.1,5.1c2.8,0,5.1-2.3,5.1-5.1
			C147,132.1,144.7,129.9,141.9,129.9z M141.9,137c-1.1,0-2.1-0.9-2.1-2.1c0-1.1,0.9-2.1,2.1-2.1c1.1,0,2.1,0.9,2.1,2.1
			C144,136.1,143.1,137,141.9,137z"/>
	</g>
	<path class="st1" d="M157.1,85.3l-51.9,0l-3.7-14.2c-0.2-0.6-0.7-1-1.4-1l-12.1,0c-1.2,0-2.3,1-2.3,2.3c0,1.2,1,2.3,2.3,2.3h8.5
		c0.6,0,1.2,0.4,1.3,1l12.5,48.4c0.4,1.6,1.9,2.8,3.6,2.8h35c1.3,0,2.4-1.1,2.3-2.4c0-1.3-1.1-2.3-2.4-2.3h-34.1c0,0,0,0,0,0
		l-0.8-3.1l38,0L157.1,85.3z M148,114.5h-35.3l-6.4-24.7l45.5,0L148,114.5z"/>
</g>
</svg>
