<?xml version="1.0" encoding="utf-8"?>
<!-- Generator: Adobe Illustrator 27.0.1, SVG Export Plug-In . SVG Version: 6.00 Build 0)  -->
<svg version="1.1" id="Layer_1" xmlns="http://www.w3.org/2000/svg" xmlns:xlink="http://www.w3.org/1999/xlink" x="0px" y="0px"
	 viewBox="0 0 248 158" style="enable-background:new 0 0 248 158;" xml:space="preserve">
<style type="text/css">
	.st0{fill:#F6F6F7;}
	.st1{fill:#FEEAE2;}
	.st2{fill:#FF6C2F;}
	.st3{opacity:0.15;}
	.st4{fill:#FFFFFF;}
</style>
<rect class="st0" width="248" height="158"/>
<path class="st1" d="M75,36h100c2.2,0,4,1.8,4,4l0,0c0,2.2-1.8,4-4,4H75c-2.2,0-4-1.8-4-4l0,0C71,37.8,72.8,36,75,36z"/>
<path class="st1" d="M166,9h12c2.2,0,4,1.8,4,4l0,0c0,2.2-1.8,4-4,4h-12c-2.2,0-4-1.8-4-4l0,0C162,10.8,163.8,9,166,9z"/>
<path class="st1" d="M13,9h27c2.2,0,4,1.8,4,4l0,0c0,2.2-1.8,4-4,4H13c-2.2,0-4-1.8-4-4l0,0C9,10.8,10.8,9,13,9z"/>
<path class="st1" d="M192,9h12c2.2,0,4,1.8,4,4l0,0c0,2.2-1.8,4-4,4h-12c-2.2,0-4-1.8-4-4l0,0C188,10.8,189.8,9,192,9z"/>
<path class="st1" d="M218,9h12c2.2,0,4,1.8,4,4l0,0c0,2.2-1.8,4-4,4h-12c-2.2,0-4-1.8-4-4l0,0C214,10.8,215.8,9,218,9z"/>
<path class="st1" d="M33,137h44c2.2,0,4,1.8,4,4l0,0c0,2.2-1.8,4-4,4H33c-2.2,0-4-1.8-4-4l0,0C29,138.8,30.8,137,33,137z"/>
<path class="st1" d="M172,137h44c2.2,0,4,1.8,4,4l0,0c0,2.2-1.8,4-4,4h-44c-2.2,0-4-1.8-4-4l0,0C168,138.8,169.8,137,172,137z"/>
<path class="st2" d="M15,71h218c2.2,0,4,1.8,4,4v45c0,2.2-1.8,4-4,4H15c-2.2,0-4-1.8-4-4V75C11,72.8,12.8,71,15,71z"/>
<g>
	<g>
		<path class="st1" d="M145.7,135.2h-37.4c-3.2,0-5.8,2.6-5.8,5.8l0,0c0,3.2,2.6,5.8,5.8,5.8h37.4c3.2,0,5.8-2.6,5.8-5.8l0,0
			C151.5,137.8,148.9,135.2,145.7,135.2z"/>
		<path class="st3" d="M104.8,136.4c-0.7,0.9-1,2.1-1,3.3l0,0c0,3.2,2.6,5.8,5.8,5.8H147c1.3,0,2.5-0.4,3.5-1.2
			c-1,1.5-2.8,2.5-4.8,2.5h-37.4c-3.2,0-5.8-2.6-5.8-5.8l0,0C102.5,139.1,103.4,137.4,104.8,136.4z"/>
	</g>
	<g>
		<path class="st4" d="M143.3,141.3h3.8c0.2,0,0.4-0.2,0.5-0.4l0.6-2c0-0.1,0-0.3-0.1-0.4c-0.1-0.1-0.2-0.2-0.4-0.2l-4.2,0
			c-0.1,0-0.2,0.1-0.2,0.2c0,0.1,0.1,0.2,0.2,0.2l4.2,0c0,0,0,0,0,0c0,0,0,0,0,0l-0.6,2c0,0,0,0,0,0c0,0,0,0.1-0.1,0.1h-3.8
			l-0.9-3.4c0-0.1-0.1-0.2-0.2-0.2h-0.9c-0.1,0-0.2,0.1-0.2,0.2c0,0.1,0.1,0.2,0.2,0.2h0.8l0.8,3.3l-0.2,0.4c-0.1,0.2,0,0.3,0.1,0.5
			c0.1,0.1,0.2,0.2,0.4,0.2h4.2c0.1,0,0.2-0.1,0.2-0.2c0-0.1-0.1-0.2-0.2-0.2h-4.2c0,0,0,0-0.1,0c0,0,0,0,0-0.1L143.3,141.3z"/>
		<path class="st4" d="M144.3,142.4c-0.4,0-0.7,0.3-0.7,0.7c0,0.4,0.3,0.7,0.7,0.7c0.4,0,0.7-0.3,0.7-0.7
			C145,142.7,144.7,142.4,144.3,142.4z M144.6,143.1c0,0.2-0.1,0.3-0.3,0.3c-0.2,0-0.3-0.1-0.3-0.3c0-0.2,0.1-0.3,0.3-0.3
			C144.4,142.8,144.6,142.9,144.6,143.1z"/>
		<path class="st4" d="M146.4,142.4c-0.4,0-0.7,0.3-0.7,0.7c0,0.4,0.3,0.7,0.7,0.7c0.4,0,0.7-0.3,0.7-0.7
			C147.1,142.7,146.7,142.4,146.4,142.4z M146.6,143.1c0,0.2-0.1,0.3-0.3,0.3c-0.2,0-0.3-0.1-0.3-0.3c0-0.2,0.1-0.3,0.3-0.3
			C146.5,142.8,146.6,142.9,146.6,143.1z"/>
	</g>
	<g>
		<path class="st4" d="M108.5,142.3l-0.2-0.4H107l-0.2,0.4c-0.1,0.2-0.1,0.3-0.2,0.3c0,0.1-0.1,0.1-0.2,0.1c-0.1,0-0.2,0-0.2-0.1
			c-0.1-0.1-0.1-0.1-0.1-0.2c0,0,0-0.1,0-0.1c0,0,0-0.1,0.1-0.2l0.8-2.1c0-0.1,0.1-0.1,0.1-0.2c0-0.1,0.1-0.2,0.1-0.2
			c0-0.1,0.1-0.1,0.2-0.1c0.1,0,0.1-0.1,0.2-0.1c0.1,0,0.2,0,0.2,0.1c0.1,0,0.1,0.1,0.2,0.1c0,0.1,0.1,0.1,0.1,0.2
			c0,0.1,0.1,0.1,0.1,0.3l0.9,2.1c0.1,0.2,0.1,0.3,0.1,0.4c0,0.1,0,0.1-0.1,0.2c-0.1,0.1-0.1,0.1-0.2,0.1c-0.1,0-0.1,0-0.1,0
			c0,0-0.1,0-0.1-0.1c0,0-0.1-0.1-0.1-0.1C108.5,142.4,108.5,142.3,108.5,142.3z M107.2,141.4h1l-0.5-1.4L107.2,141.4z"/>
		<path class="st4" d="M110.3,139.4h0.9c0.2,0,0.4,0,0.6,0.1c0.2,0,0.3,0.1,0.4,0.2c0.3,0.3,0.5,0.7,0.5,1.3c0,0.2,0,0.4-0.1,0.5
			c0,0.2-0.1,0.3-0.2,0.4c-0.1,0.1-0.2,0.2-0.3,0.4c-0.1,0.1-0.2,0.1-0.3,0.2c-0.1,0-0.2,0.1-0.3,0.1c-0.1,0-0.3,0-0.4,0h-0.9
			c-0.1,0-0.2,0-0.3-0.1c-0.1,0-0.1-0.1-0.1-0.2c0-0.1,0-0.2,0-0.3v-2.4c0-0.1,0-0.2,0.1-0.3C110.1,139.4,110.2,139.4,110.3,139.4z
			 M110.6,139.9v2.2h0.5c0.1,0,0.2,0,0.3,0c0.1,0,0.1,0,0.2,0c0.1,0,0.1-0.1,0.2-0.1c0.2-0.2,0.3-0.5,0.3-1c0-0.3,0-0.6-0.1-0.7
			c-0.1-0.2-0.2-0.3-0.4-0.3c-0.1,0-0.3-0.1-0.5-0.1H110.6z"/>
		<path class="st4" d="M113.9,139.4h0.9c0.2,0,0.4,0,0.6,0.1c0.2,0,0.3,0.1,0.4,0.2c0.3,0.3,0.5,0.7,0.5,1.3c0,0.2,0,0.4-0.1,0.5
			c0,0.2-0.1,0.3-0.2,0.4c-0.1,0.1-0.2,0.2-0.3,0.4c-0.1,0.1-0.2,0.1-0.3,0.2c-0.1,0-0.2,0.1-0.3,0.1c-0.1,0-0.3,0-0.4,0h-0.9
			c-0.1,0-0.2,0-0.3-0.1c-0.1,0-0.1-0.1-0.1-0.2c0-0.1,0-0.2,0-0.3v-2.4c0-0.1,0-0.2,0.1-0.3C113.7,139.4,113.8,139.4,113.9,139.4z
			 M114.2,139.9v2.2h0.5c0.1,0,0.2,0,0.3,0c0.1,0,0.1,0,0.2,0c0.1,0,0.1-0.1,0.2-0.1c0.2-0.2,0.3-0.5,0.3-1c0-0.3,0-0.6-0.1-0.7
			c-0.1-0.2-0.2-0.3-0.4-0.3c-0.1,0-0.3-0.1-0.5-0.1H114.2z"/>
		<path class="st4" d="M120.7,139.9h-0.7v2.4c0,0.1,0,0.2-0.1,0.3c-0.1,0.1-0.1,0.1-0.2,0.1c-0.1,0-0.2,0-0.2-0.1
			c-0.1-0.1-0.1-0.2-0.1-0.3v-2.4h-0.7c-0.1,0-0.2,0-0.3-0.1c-0.1-0.1-0.1-0.1-0.1-0.2c0-0.1,0-0.2,0.1-0.2c0.1,0,0.1-0.1,0.2-0.1
			h2.1c0.1,0,0.2,0,0.3,0.1c0.1,0.1,0.1,0.1,0.1,0.2c0,0.1,0,0.1-0.1,0.2C120.9,139.9,120.8,139.9,120.7,139.9z"/>
		<path class="st4" d="M123,139.3c0.3,0,0.6,0.1,0.9,0.2c0.2,0.1,0.4,0.3,0.6,0.6c0.1,0.3,0.2,0.6,0.2,0.9c0,0.3,0,0.5-0.1,0.7
			c-0.1,0.2-0.2,0.4-0.3,0.5c-0.1,0.2-0.3,0.3-0.5,0.3c-0.2,0.1-0.4,0.1-0.7,0.1c-0.3,0-0.5,0-0.7-0.1c-0.2-0.1-0.4-0.2-0.5-0.4
			c-0.1-0.2-0.2-0.3-0.3-0.5c-0.1-0.2-0.1-0.4-0.1-0.7c0-0.3,0-0.5,0.1-0.7c0.1-0.2,0.2-0.4,0.3-0.5c0.1-0.1,0.3-0.3,0.5-0.3
			C122.5,139.3,122.8,139.3,123,139.3z M124,141c0-0.2,0-0.4-0.1-0.6c-0.1-0.2-0.2-0.3-0.3-0.4c-0.1-0.1-0.3-0.1-0.5-0.1
			c-0.1,0-0.3,0-0.4,0.1c-0.1,0.1-0.2,0.1-0.3,0.2c-0.1,0.1-0.1,0.2-0.2,0.4c0,0.1-0.1,0.3-0.1,0.5c0,0.2,0,0.4,0.1,0.5
			c0,0.2,0.1,0.3,0.2,0.4c0.1,0.1,0.2,0.2,0.3,0.2c0.1,0,0.2,0.1,0.4,0.1c0.2,0,0.3,0,0.5-0.1c0.1-0.1,0.3-0.2,0.3-0.4
			C123.9,141.5,124,141.3,124,141z"/>
		<path class="st4" d="M129.6,141.6c0,0.1,0,0.2-0.1,0.3c-0.1,0.1-0.1,0.2-0.2,0.4c-0.1,0.1-0.3,0.2-0.4,0.3
			c-0.2,0.1-0.4,0.1-0.6,0.1c-0.2,0-0.3,0-0.5,0c-0.1,0-0.3-0.1-0.4-0.2c-0.1-0.1-0.2-0.2-0.3-0.3c-0.1-0.1-0.2-0.2-0.2-0.3
			c-0.1-0.1-0.1-0.3-0.1-0.4c0-0.1,0-0.3,0-0.5c0-0.3,0-0.5,0.1-0.7c0.1-0.2,0.2-0.4,0.3-0.5c0.1-0.1,0.3-0.3,0.5-0.3
			c0.2-0.1,0.4-0.1,0.6-0.1c0.3,0,0.5,0.1,0.7,0.2c0.2,0.1,0.4,0.2,0.5,0.4c0.1,0.2,0.2,0.3,0.2,0.4c0,0.1,0,0.1-0.1,0.2
			c-0.1,0.1-0.1,0.1-0.2,0.1c-0.1,0-0.1,0-0.2-0.1c0,0-0.1-0.1-0.1-0.2c-0.1-0.2-0.2-0.3-0.3-0.4c-0.1-0.1-0.3-0.1-0.4-0.1
			c-0.3,0-0.5,0.1-0.7,0.3c-0.2,0.2-0.2,0.5-0.2,0.9c0,0.3,0,0.5,0.1,0.6c0.1,0.2,0.2,0.3,0.3,0.4c0.1,0.1,0.3,0.1,0.5,0.1
			c0.2,0,0.4,0,0.5-0.1c0.1-0.1,0.2-0.2,0.3-0.4c0-0.1,0.1-0.2,0.1-0.2c0-0.1,0.1-0.1,0.2-0.1c0.1,0,0.1,0,0.2,0.1
			C129.6,141.5,129.6,141.5,129.6,141.6z"/>
		<path class="st4" d="M132.5,142.3l-0.2-0.4H131l-0.2,0.4c-0.1,0.2-0.1,0.3-0.2,0.3c0,0.1-0.1,0.1-0.2,0.1c-0.1,0-0.2,0-0.2-0.1
			c-0.1-0.1-0.1-0.1-0.1-0.2c0,0,0-0.1,0-0.1c0,0,0-0.1,0.1-0.2l0.8-2.1c0-0.1,0.1-0.1,0.1-0.2c0-0.1,0.1-0.2,0.1-0.2
			c0-0.1,0.1-0.1,0.2-0.1c0.1,0,0.1-0.1,0.2-0.1c0.1,0,0.2,0,0.2,0.1c0.1,0,0.1,0.1,0.2,0.1c0,0.1,0.1,0.1,0.1,0.2
			c0,0.1,0.1,0.1,0.1,0.3l0.9,2.1c0.1,0.2,0.1,0.3,0.1,0.4c0,0.1,0,0.1-0.1,0.2c-0.1,0.1-0.1,0.1-0.2,0.1c-0.1,0-0.1,0-0.1,0
			c0,0-0.1,0-0.1-0.1c0,0-0.1-0.1-0.1-0.1C132.6,142.4,132.6,142.3,132.5,142.3z M131.2,141.4h1l-0.5-1.4L131.2,141.4z"/>
		<path class="st4" d="M134.9,141.2h-0.2v1.1c0,0.1,0,0.2-0.1,0.3c-0.1,0.1-0.1,0.1-0.2,0.1c-0.1,0-0.2,0-0.2-0.1
			c-0.1-0.1-0.1-0.2-0.1-0.3v-2.5c0-0.1,0-0.2,0.1-0.3c0.1-0.1,0.2-0.1,0.3-0.1h1.1c0.1,0,0.3,0,0.4,0c0.1,0,0.2,0,0.3,0.1
			c0.1,0,0.2,0.1,0.3,0.2c0.1,0.1,0.1,0.2,0.2,0.3c0,0.1,0.1,0.2,0.1,0.3c0,0.2-0.1,0.4-0.2,0.6c-0.1,0.1-0.3,0.3-0.6,0.3
			c0.1,0.1,0.2,0.2,0.3,0.3c0.1,0.1,0.2,0.3,0.3,0.4c0.1,0.1,0.2,0.3,0.2,0.4c0,0.1,0.1,0.2,0.1,0.2c0,0,0,0.1,0,0.1
			c0,0-0.1,0.1-0.1,0.1c0,0-0.1,0-0.2,0c-0.1,0-0.1,0-0.2-0.1c-0.1,0-0.1-0.1-0.1-0.1c0-0.1-0.1-0.1-0.1-0.2l-0.3-0.4
			c-0.1-0.2-0.2-0.3-0.3-0.4c-0.1-0.1-0.2-0.1-0.2-0.2C135.1,141.3,135,141.2,134.9,141.2z M135.2,139.9h-0.6v0.9h0.6
			c0.2,0,0.3,0,0.4,0c0.1,0,0.2-0.1,0.2-0.1c0.1-0.1,0.1-0.2,0.1-0.3c0-0.1,0-0.2-0.1-0.2c0-0.1-0.1-0.1-0.2-0.2
			C135.6,139.9,135.5,139.9,135.2,139.9z"/>
		<path class="st4" d="M139.4,139.9h-0.7v2.4c0,0.1,0,0.2-0.1,0.3c-0.1,0.1-0.1,0.1-0.2,0.1c-0.1,0-0.2,0-0.2-0.1
			c-0.1-0.1-0.1-0.2-0.1-0.3v-2.4h-0.7c-0.1,0-0.2,0-0.3-0.1c-0.1-0.1-0.1-0.1-0.1-0.2c0-0.1,0-0.2,0.1-0.2c0.1,0,0.1-0.1,0.2-0.1
			h2.1c0.1,0,0.2,0,0.3,0.1c0.1,0.1,0.1,0.1,0.1,0.2c0,0.1,0,0.1-0.1,0.2C139.6,139.9,139.5,139.9,139.4,139.9z"/>
	</g>
</g>
</svg>
