<?xml version="1.0" encoding="utf-8"?>
<!-- Generator: Adobe Illustrator 27.0.1, SVG Export Plug-In . SVG Version: 6.00 Build 0)  -->
<svg version="1.1" id="Layer_1" xmlns="http://www.w3.org/2000/svg" xmlns:xlink="http://www.w3.org/1999/xlink" x="0px" y="0px"
	 viewBox="0 0 248 158" style="enable-background:new 0 0 248 158;" xml:space="preserve">
<style type="text/css">
	.st0{fill:#F6F6F7;}
	.st1{fill:#FEEAE2;}
	.st2{fill:#FF6C2F;}
	.st3{opacity:0.15;}
	.st4{fill:#FFFFFF;}
</style>
<rect class="st0" width="248" height="158"/>
<path class="st1" d="M14,10h130c2.2,0,4,1.8,4,4v87c0,2.2-1.8,4-4,4H14c-2.2,0-4-1.8-4-4V14C10,11.8,11.8,10,14,10z"/>
<path class="st1" d="M14,111h22c2.2,0,4,1.8,4,4v22c0,2.2-1.8,4-4,4H14c-2.2,0-4-1.8-4-4v-22C10,112.8,11.8,111,14,111z"/>
<path class="st1" d="M50,111h22c2.2,0,4,1.8,4,4v22c0,2.2-1.8,4-4,4H50c-2.2,0-4-1.8-4-4v-22C46,112.8,47.8,111,50,111z"/>
<path class="st1" d="M86,111h22c2.2,0,4,1.8,4,4v22c0,2.2-1.8,4-4,4H86c-2.2,0-4-1.8-4-4v-22C82,112.8,83.8,111,86,111z"/>
<path class="st1" d="M122,111h22c2.2,0,4,1.8,4,4v22c0,2.2-1.8,4-4,4h-22c-2.2,0-4-1.8-4-4v-22C118,112.8,119.8,111,122,111z"/>
<path class="st1" d="M158,20h78c2.2,0,4,1.8,4,4l0,0c0,2.2-1.8,4-4,4h-78c-2.2,0-4-1.8-4-4l0,0C154,21.8,155.8,20,158,20z"/>
<path class="st1" d="M158,34h36c2.2,0,4,1.8,4,4l0,0c0,2.2-1.8,4-4,4h-36c-2.2,0-4-1.8-4-4l0,0C154,35.8,155.8,34,158,34z"/>
<path class="st1" d="M158,133h12c2.2,0,4,1.8,4,4l0,0c0,2.2-1.8,4-4,4h-12c-2.2,0-4-1.8-4-4l0,0C154,134.8,155.8,133,158,133z"/>
<path class="st2" d="M158,79h78c2.2,0,4,1.8,4,4v37c0,2.2-1.8,4-4,4h-78c-2.2,0-4-1.8-4-4V83C154,80.8,155.8,79,158,79z"/>
<path class="st1" d="M184,133h12c2.2,0,4,1.8,4,4l0,0c0,2.2-1.8,4-4,4h-12c-2.2,0-4-1.8-4-4l0,0C180,134.8,181.8,133,184,133z"/>
<path class="st1" d="M210,133h12c2.2,0,4,1.8,4,4l0,0c0,2.2-1.8,4-4,4h-12c-2.2,0-4-1.8-4-4l0,0C206,134.8,207.8,133,210,133z"/>
<g>
	<g>
		<path class="st1" d="M198.7,61.1h-37.4c-3.2,0-5.8,2.6-5.8,5.8v0c0,3.2,2.6,5.8,5.8,5.8h37.4c3.2,0,5.8-2.6,5.8-5.8v0
			C204.5,63.7,201.9,61.1,198.7,61.1z"/>
		<path class="st3" d="M157.8,62.3c-0.7,0.9-1,2.1-1,3.3v0c0,3.2,2.6,5.8,5.8,5.8H200c1.3,0,2.5-0.4,3.5-1.2c-1,1.5-2.8,2.5-4.8,2.5
			h-37.4c-3.2,0-5.8-2.6-5.8-5.8v0C155.5,65,156.4,63.4,157.8,62.3z"/>
	</g>
	<g>
		<path class="st4" d="M196.3,67.2h3.8c0.2,0,0.4-0.2,0.5-0.4l0.6-2c0-0.1,0-0.3-0.1-0.4c-0.1-0.1-0.2-0.2-0.4-0.2l-4.2,0
			c-0.1,0-0.2,0.1-0.2,0.2c0,0.1,0.1,0.2,0.2,0.2l4.2,0c0,0,0,0,0,0c0,0,0,0,0,0l-0.6,2c0,0,0,0,0,0c0,0,0,0.1-0.1,0.1h-3.8
			l-0.9-3.4c0-0.1-0.1-0.2-0.2-0.2h-0.9c-0.1,0-0.2,0.1-0.2,0.2s0.1,0.2,0.2,0.2h0.8L196,67l-0.2,0.4c-0.1,0.2,0,0.3,0.1,0.5
			c0.1,0.1,0.2,0.2,0.4,0.2h4.2c0.1,0,0.2-0.1,0.2-0.2c0-0.1-0.1-0.2-0.2-0.2h-4.2c0,0,0,0-0.1,0c0,0,0,0,0-0.1L196.3,67.2z"/>
		<path class="st4" d="M197.3,68.3c-0.4,0-0.7,0.3-0.7,0.7c0,0.4,0.3,0.7,0.7,0.7c0.4,0,0.7-0.3,0.7-0.7
			C198,68.6,197.7,68.3,197.3,68.3z M197.6,69c0,0.2-0.1,0.3-0.3,0.3c-0.2,0-0.3-0.1-0.3-0.3c0-0.2,0.1-0.3,0.3-0.3
			C197.4,68.7,197.6,68.9,197.6,69z"/>
		<path class="st4" d="M199.4,68.3c-0.4,0-0.7,0.3-0.7,0.7c0,0.4,0.3,0.7,0.7,0.7c0.4,0,0.7-0.3,0.7-0.7
			C200.1,68.6,199.7,68.3,199.4,68.3z M199.6,69c0,0.2-0.1,0.3-0.3,0.3c-0.2,0-0.3-0.1-0.3-0.3c0-0.2,0.1-0.3,0.3-0.3
			C199.5,68.7,199.6,68.9,199.6,69z"/>
	</g>
	<g>
		<path class="st4" d="M161.5,68.2l-0.2-0.4H160l-0.2,0.4c-0.1,0.2-0.1,0.3-0.2,0.3c0,0.1-0.1,0.1-0.2,0.1c-0.1,0-0.2,0-0.2-0.1
			c-0.1-0.1-0.1-0.1-0.1-0.2c0,0,0-0.1,0-0.1c0,0,0-0.1,0.1-0.2l0.8-2.1c0-0.1,0.1-0.1,0.1-0.2c0-0.1,0.1-0.2,0.1-0.2
			c0-0.1,0.1-0.1,0.2-0.1c0.1,0,0.1-0.1,0.2-0.1c0.1,0,0.2,0,0.2,0.1c0.1,0,0.1,0.1,0.2,0.1c0,0.1,0.1,0.1,0.1,0.2
			c0,0.1,0.1,0.1,0.1,0.3l0.9,2.1c0.1,0.2,0.1,0.3,0.1,0.4c0,0.1,0,0.1-0.1,0.2c-0.1,0.1-0.1,0.1-0.2,0.1c-0.1,0-0.1,0-0.1,0
			c0,0-0.1,0-0.1-0.1c0,0-0.1-0.1-0.1-0.1C161.5,68.3,161.5,68.3,161.5,68.2z M160.2,67.3h1l-0.5-1.4L160.2,67.3z"/>
		<path class="st4" d="M163.3,65.3h0.9c0.2,0,0.4,0,0.6,0.1c0.2,0,0.3,0.1,0.4,0.2c0.3,0.3,0.5,0.7,0.5,1.3c0,0.2,0,0.4-0.1,0.5
			c0,0.2-0.1,0.3-0.2,0.4c-0.1,0.1-0.2,0.2-0.3,0.4c-0.1,0.1-0.2,0.1-0.3,0.2c-0.1,0-0.2,0.1-0.3,0.1c-0.1,0-0.3,0-0.4,0h-0.9
			c-0.1,0-0.2,0-0.3-0.1c-0.1,0-0.1-0.1-0.1-0.2c0-0.1,0-0.2,0-0.3v-2.4c0-0.1,0-0.2,0.1-0.3C163.1,65.3,163.2,65.3,163.3,65.3z
			 M163.6,65.8V68h0.5c0.1,0,0.2,0,0.3,0c0.1,0,0.1,0,0.2,0c0.1,0,0.1-0.1,0.2-0.1c0.2-0.2,0.3-0.5,0.3-1c0-0.3,0-0.6-0.1-0.7
			c-0.1-0.2-0.2-0.3-0.4-0.3c-0.1,0-0.3-0.1-0.5-0.1H163.6z"/>
		<path class="st4" d="M166.9,65.3h0.9c0.2,0,0.4,0,0.6,0.1c0.2,0,0.3,0.1,0.4,0.2c0.3,0.3,0.5,0.7,0.5,1.3c0,0.2,0,0.4-0.1,0.5
			c0,0.2-0.1,0.3-0.2,0.4c-0.1,0.1-0.2,0.2-0.3,0.4c-0.1,0.1-0.2,0.1-0.3,0.2c-0.1,0-0.2,0.1-0.3,0.1c-0.1,0-0.3,0-0.4,0h-0.9
			c-0.1,0-0.2,0-0.3-0.1c-0.1,0-0.1-0.1-0.1-0.2c0-0.1,0-0.2,0-0.3v-2.4c0-0.1,0-0.2,0.1-0.3C166.7,65.3,166.8,65.3,166.9,65.3z
			 M167.2,65.8V68h0.5c0.1,0,0.2,0,0.3,0c0.1,0,0.1,0,0.2,0c0.1,0,0.1-0.1,0.2-0.1c0.2-0.2,0.3-0.5,0.3-1c0-0.3,0-0.6-0.1-0.7
			c-0.1-0.2-0.2-0.3-0.4-0.3c-0.1,0-0.3-0.1-0.5-0.1H167.2z"/>
		<path class="st4" d="M173.7,65.8h-0.7v2.4c0,0.1,0,0.2-0.1,0.3c-0.1,0.1-0.1,0.1-0.2,0.1c-0.1,0-0.2,0-0.2-0.1
			c-0.1-0.1-0.1-0.2-0.1-0.3v-2.4h-0.7c-0.1,0-0.2,0-0.3-0.1c-0.1-0.1-0.1-0.1-0.1-0.2c0-0.1,0-0.2,0.1-0.2c0.1,0,0.1-0.1,0.2-0.1
			h2.1c0.1,0,0.2,0,0.3,0.1c0.1,0.1,0.1,0.1,0.1,0.2c0,0.1,0,0.1-0.1,0.2C173.9,65.8,173.8,65.8,173.7,65.8z"/>
		<path class="st4" d="M176,65.2c0.3,0,0.6,0.1,0.9,0.2c0.2,0.1,0.4,0.3,0.6,0.6c0.1,0.3,0.2,0.6,0.2,0.9c0,0.3,0,0.5-0.1,0.7
			c-0.1,0.2-0.2,0.4-0.3,0.5c-0.1,0.2-0.3,0.3-0.5,0.3c-0.2,0.1-0.4,0.1-0.7,0.1c-0.3,0-0.5,0-0.7-0.1c-0.2-0.1-0.4-0.2-0.5-0.4
			c-0.1-0.2-0.2-0.3-0.3-0.5c-0.1-0.2-0.1-0.4-0.1-0.7c0-0.3,0-0.5,0.1-0.7c0.1-0.2,0.2-0.4,0.3-0.5c0.1-0.1,0.3-0.3,0.5-0.3
			C175.5,65.3,175.8,65.2,176,65.2z M177,66.9c0-0.2,0-0.4-0.1-0.6c-0.1-0.2-0.2-0.3-0.3-0.4c-0.1-0.1-0.3-0.1-0.5-0.1
			c-0.1,0-0.3,0-0.4,0.1c-0.1,0.1-0.2,0.1-0.3,0.2c-0.1,0.1-0.1,0.2-0.2,0.4c0,0.1-0.1,0.3-0.1,0.5c0,0.2,0,0.4,0.1,0.5
			c0,0.2,0.1,0.3,0.2,0.4c0.1,0.1,0.2,0.2,0.3,0.2c0.1,0,0.2,0.1,0.4,0.1c0.2,0,0.3,0,0.5-0.1c0.1-0.1,0.3-0.2,0.3-0.4
			C176.9,67.4,177,67.2,177,66.9z"/>
		<path class="st4" d="M182.6,67.5c0,0.1,0,0.2-0.1,0.3c-0.1,0.1-0.1,0.2-0.2,0.4c-0.1,0.1-0.3,0.2-0.4,0.3
			c-0.2,0.1-0.4,0.1-0.6,0.1c-0.2,0-0.3,0-0.5,0c-0.1,0-0.3-0.1-0.4-0.2c-0.1-0.1-0.2-0.2-0.3-0.3c-0.1-0.1-0.2-0.2-0.2-0.3
			c-0.1-0.1-0.1-0.3-0.1-0.4c0-0.1,0-0.3,0-0.5c0-0.3,0-0.5,0.1-0.7c0.1-0.2,0.2-0.4,0.3-0.5c0.1-0.1,0.3-0.3,0.5-0.3
			c0.2-0.1,0.4-0.1,0.6-0.1c0.3,0,0.5,0.1,0.7,0.2c0.2,0.1,0.4,0.2,0.5,0.4c0.1,0.2,0.2,0.3,0.2,0.4c0,0.1,0,0.1-0.1,0.2
			c-0.1,0.1-0.1,0.1-0.2,0.1c-0.1,0-0.1,0-0.2-0.1c0,0-0.1-0.1-0.1-0.2c-0.1-0.2-0.2-0.3-0.3-0.4c-0.1-0.1-0.3-0.1-0.4-0.1
			c-0.3,0-0.5,0.1-0.7,0.3c-0.2,0.2-0.2,0.5-0.2,0.9c0,0.3,0,0.5,0.1,0.6c0.1,0.2,0.2,0.3,0.3,0.4c0.1,0.1,0.3,0.1,0.5,0.1
			c0.2,0,0.4,0,0.5-0.1c0.1-0.1,0.2-0.2,0.3-0.4c0-0.1,0.1-0.2,0.1-0.2c0-0.1,0.1-0.1,0.2-0.1c0.1,0,0.1,0,0.2,0.1
			C182.6,67.4,182.6,67.5,182.6,67.5z"/>
		<path class="st4" d="M185.5,68.2l-0.2-0.4H184l-0.2,0.4c-0.1,0.2-0.1,0.3-0.2,0.3c0,0.1-0.1,0.1-0.2,0.1c-0.1,0-0.2,0-0.2-0.1
			c-0.1-0.1-0.1-0.1-0.1-0.2c0,0,0-0.1,0-0.1c0,0,0-0.1,0.1-0.2l0.8-2.1c0-0.1,0.1-0.1,0.1-0.2c0-0.1,0.1-0.2,0.1-0.2
			c0-0.1,0.1-0.1,0.2-0.1c0.1,0,0.1-0.1,0.2-0.1c0.1,0,0.2,0,0.2,0.1c0.1,0,0.1,0.1,0.2,0.1c0,0.1,0.1,0.1,0.1,0.2
			c0,0.1,0.1,0.1,0.1,0.3l0.9,2.1c0.1,0.2,0.1,0.3,0.1,0.4c0,0.1,0,0.1-0.1,0.2c-0.1,0.1-0.1,0.1-0.2,0.1c-0.1,0-0.1,0-0.1,0
			c0,0-0.1,0-0.1-0.1c0,0-0.1-0.1-0.1-0.1C185.6,68.3,185.6,68.3,185.5,68.2z M184.2,67.3h1l-0.5-1.4L184.2,67.3z"/>
		<path class="st4" d="M187.9,67.2h-0.2v1.1c0,0.1,0,0.2-0.1,0.3c-0.1,0.1-0.1,0.1-0.2,0.1c-0.1,0-0.2,0-0.2-0.1
			c-0.1-0.1-0.1-0.2-0.1-0.3v-2.5c0-0.1,0-0.2,0.1-0.3c0.1-0.1,0.2-0.1,0.3-0.1h1.1c0.1,0,0.3,0,0.4,0c0.1,0,0.2,0,0.3,0.1
			c0.1,0,0.2,0.1,0.3,0.2c0.1,0.1,0.1,0.2,0.2,0.3c0,0.1,0.1,0.2,0.1,0.3c0,0.2-0.1,0.4-0.2,0.6c-0.1,0.1-0.3,0.3-0.6,0.3
			c0.1,0.1,0.2,0.2,0.3,0.3c0.1,0.1,0.2,0.3,0.3,0.4c0.1,0.1,0.2,0.3,0.2,0.4c0,0.1,0.1,0.2,0.1,0.2c0,0,0,0.1,0,0.1
			c0,0-0.1,0.1-0.1,0.1c0,0-0.1,0-0.2,0c-0.1,0-0.1,0-0.2-0.1c-0.1,0-0.1-0.1-0.1-0.1c0-0.1-0.1-0.1-0.1-0.2l-0.3-0.4
			c-0.1-0.2-0.2-0.3-0.3-0.4c-0.1-0.1-0.2-0.1-0.2-0.2C188.1,67.2,188,67.2,187.9,67.2z M188.2,65.8h-0.6v0.9h0.6c0.2,0,0.3,0,0.4,0
			c0.1,0,0.2-0.1,0.2-0.1c0.1-0.1,0.1-0.2,0.1-0.3c0-0.1,0-0.2-0.1-0.2c0-0.1-0.1-0.1-0.2-0.2C188.6,65.8,188.5,65.8,188.2,65.8z"/>
		<path class="st4" d="M192.4,65.8h-0.7v2.4c0,0.1,0,0.2-0.1,0.3c-0.1,0.1-0.1,0.1-0.2,0.1c-0.1,0-0.2,0-0.2-0.1
			c-0.1-0.1-0.1-0.2-0.1-0.3v-2.4h-0.7c-0.1,0-0.2,0-0.3-0.1c-0.1-0.1-0.1-0.1-0.1-0.2c0-0.1,0-0.2,0.1-0.2c0.1,0,0.1-0.1,0.2-0.1
			h2.1c0.1,0,0.2,0,0.3,0.1c0.1,0.1,0.1,0.1,0.1,0.2c0,0.1,0,0.1-0.1,0.2C192.6,65.8,192.5,65.8,192.4,65.8z"/>
	</g>
</g>
</svg>
