<?xml version="1.0" encoding="utf-8"?>
<!-- Generator: Adobe Illustrator 27.0.1, SVG Export Plug-In . SVG Version: 6.00 Build 0)  -->
<svg version="1.1" id="Layer_1" xmlns="http://www.w3.org/2000/svg" xmlns:xlink="http://www.w3.org/1999/xlink" x="0px" y="0px"
	 viewBox="0 0 248 158" style="enable-background:new 0 0 248 158;" xml:space="preserve">
<style type="text/css">
	.st0{fill:#DEF4F8;}
	.st1{opacity:0.38;fill:#FFFFFF;}
	.st2{fill:#EECAB0;}
	.st3{fill:#F7D0B2;}
	.st4{fill:#5C8678;}
	.st5{fill:#FFD22C;}
	.st6{fill:#59595B;}
	.st7{fill:#808183;}
	.st8{fill:#FFFFFF;}
	.st9{opacity:8.000000e-02;}
	.st10{fill:#232020;}
</style>
<rect y="0.2" class="st0" width="248" height="158"/>
<g>
	<rect x="41.4" class="st0" width="158" height="158"/>
	<circle class="st1" cx="120.4" cy="79" r="64"/>
</g>
<g>
	<path class="st2" d="M122.3,104.4c-2.3-0.1-4.7-0.1-6.7,0.8s-3.4,3-2.5,4.9c0.3,0.7,5.4,2,6,2.6c4.5,4.5,4.5,8.3,9,12.8
		c1.9-1,3-2.8,3.7-4.7c0.6-1.6,1-3.3,1.4-4.9c0.6-2.6,1.2-5.4-0.5-7.8C130.6,105.2,126.2,104.5,122.3,104.4z"/>
	<path class="st3" d="M141.5,126.5l-1.3-6l-1-9.9l-12.1-9l-15,4.8c0,0-1.7,2,0.7,2.8c2.4,0.8,13.9-0.8,13.9-0.8l3.9,9.4l0.5,15.5
		l3.7,10.2l12.6-5.8L141.5,126.5z"/>
	<path class="st4" d="M147,127.6c0,0-17.2,10.2-21.1,12.4l3.1,18.7h35.8L147,127.6z"/>
	<g>
		<g>
			<g>
				<path class="st5" d="M143.3,74.2c0-13.9-11.3-25.2-25.2-25.2c-13.9,0-25.3,11.4-25.2,25.3c0,6.9,2.8,13.2,7.4,17.7
					c3.5,3.5,6.1,7.9,7.4,12.7l2,7.5h16.5l1.9-7.1c1.3-4.9,4-9.4,7.6-13C140.4,87.6,143.3,81.2,143.3,74.2z"/>
				<path class="st6" d="M121.8,121.1h-8.1c-2.3,0-4.2-1.7-4.4-3.8l-0.7-8.3l18.3-0.1l-0.8,8.4C126.1,119.4,124.1,121.1,121.8,121.1
					z"/>
			</g>
			<path class="st7" d="M125.4,112.5c-5.1,0.2-10.2,0-15.3,0.2c-0.5,0-0.4,0.7,0,0.7c5.1,0.2,10.2-0.1,15.3,0
				C126,113.4,125.9,112.4,125.4,112.5z"/>
			<path class="st7" d="M125.4,114.7c-5.1,0.2-10.2,0-15.3,0.2c-0.5,0-0.4,0.7,0,0.7c5.1,0.2,10.2-0.1,15.3,0
				C126,115.6,125.9,114.6,125.4,114.7z"/>
		</g>
		<g>
			<path class="st5" d="M120.1,36.1c0,1.6-0.9,7.5-1.9,7.5c-1.1,0-1.9-5.8-1.9-7.5s0.9-2.9,1.9-2.9
				C119.2,33.1,120.1,34.5,120.1,36.1z"/>
			<path class="st5" d="M144.1,45.1c-1.2,1.1-5.1,5.5-4.4,6.3c0.7,0.8,5.7-2.3,6.9-3.4c1.2-1.1,1.7-2.6,1-3.4
				C146.9,43.8,145.4,44,144.1,45.1z"/>
			<path class="st5" d="M153.5,71.2c-1.6,0.2-7.5,0.1-7.7-1c-0.1-1.1,5.6-2.7,7.2-2.9c1.6-0.2,3,0.5,3.2,1.5
				C156.3,69.9,155.1,71,153.5,71.2z"/>
			<path class="st5" d="M94.4,43.1c1.3,1,5.4,5.3,4.7,6.1c-0.7,0.8-5.8-2.1-7.1-3.1c-1.3-1-1.8-2.5-1.1-3.3
				C91.5,42,93.1,42.1,94.4,43.1z"/>
			<path class="st5" d="M82.1,67c1.6,0.2,7.5,0.1,7.7-1c0.1-1.1-5.6-2.7-7.2-2.9c-1.6-0.2-3,0.5-3.2,1.5
				C79.3,65.8,80.5,66.8,82.1,67z"/>
		</g>
		<g>
			<path class="st8" d="M128.9,87c-0.8-0.6-1.4-1.4-1.9-2.2c0.9-1.1,1.3-2.6,1.5-4.1c0.1-0.9,0.1-1.7,0.1-2.6c0-0.8-0.1-1.5-0.8-2.1
				c-0.6-0.5-1.5,0-2,0.4c-0.6,0.5-0.8,1.4-1,2.1c-0.4,1.4-0.4,3-0.2,4.4c0.1,0.5,0.2,1,0.4,1.5c-0.4,0.3-0.8,0.5-1.2,0.6
				c-1.4,0.4-2.4-0.4-3.1-1.5c-0.1-0.2-0.2-0.4-0.3-0.6c0.1-0.3,0.2-0.6,0.3-0.9c0.5-1.4,0.7-2.9,0.8-4.3c0.1-1.2,0.1-2.7-1-3.4
				c-0.4-0.2-0.8-0.1-1,0.3c-1.7,2.4-1.6,5.5-0.7,8.2c-0.3,0.7-0.6,1.4-1,2.1c-0.4,0.7-1.2,1.9-2.2,1.7c-0.9-0.1-1.7-1.3-2.1-2
				c-0.3-0.5-0.6-1.1-0.8-1.7c0.1-0.3,0.2-0.6,0.3-0.9c0.4-1.2,0.6-2.5,0.7-3.8c0.1-1.1,0.1-2.6-1.1-3.1c-0.3-0.2-0.9-0.1-1,0.3
				c-1,2.3-1.2,4.9-0.6,7.3c0,0.1,0,0.2,0.1,0.2c-0.7,1.8-1.8,3.5-3.1,5c-0.6,0.6,0.3,1.6,1,1c1.2-1.2,2.2-2.6,2.9-4.1
				c0.2,0.4,0.5,0.8,0.8,1.2c0.8,1.1,1.7,2.1,3.1,2.1c1.3,0.1,2.4-1,3.1-2c0.3-0.5,0.6-1,0.9-1.5c0.6,1,1.6,1.8,2.8,2
				c1.2,0.2,2.3-0.2,3.2-0.8c0.6,0.9,1.3,1.8,2.1,2.5C128.8,89.2,129.9,87.7,128.9,87z M120.2,76.5c0.1,0.6-0.1,1.4-0.1,1.7
				c-0.1,0.7-0.2,1.3-0.3,2C119.6,78.9,119.7,77.6,120.2,76.5z M126.1,80.3c0-0.6,0.2-1.2,0.4-1.8c0.1-0.3,0.2-0.5,0.4-0.8
				c0,0,0.1-0.1,0.1-0.1c0,0,0,0.1,0,0.2c0.1,1.5,0,3.2-0.5,4.6c-0.1,0.2-0.1,0.4-0.2,0.5C126.1,82,126.1,81.2,126.1,80.3z"/>
			<path class="st8" d="M130.4,83.3c-2.7,8.2-5.5,16.3-8.5,24.4c-0.4,1,1.1,1.6,1.5,0.6c3-8.1,5.8-16.2,8.4-24.5
				C131.9,83,130.6,82.4,130.4,83.3z"/>
			<path class="st8" d="M105.9,82.8c2.1,8.3,4.1,16.7,5.9,25.2c0.2,1,1.8,0.7,1.6-0.3c-1.8-8.4-3.8-16.8-6.1-25.1
				C107.1,81.7,105.7,81.9,105.9,82.8z"/>
		</g>
	</g>
	<g class="st9">
		<path class="st10" d="M133.4,54.1c5.8,8.5,6.9,19.6,3.1,29.2c-1.1,2.7-2.8,4.9-4.6,7.2c-1.7,2.2-3,4.7-4,7.2
			c-1.6,4.2-2.5,8.7-3.4,13.1c-0.2,1-0.4,2-1,2.9c-0.7,1.2-1.9,1.9-3.2,2.4c-1.3,0.5-2.7,0.7-4.1,0.6c-0.6,0-1.1-0.2-1.7-0.3
			c-0.7-0.1-1.3-0.2-1.9-0.5c-0.7-0.4-1.4-0.9-2.1-1.5c-0.4-0.3-0.8-0.7-1.2-1c-0.1,0.3-0.1,0.8-0.1,1.1c0,1.6-0.1,3.3,0.9,4.7
			c0.8,1.2,2.2,1.8,3.7,1.8c0,0,8.1,0,8.1,0c2.3,0,4.2-1.7,4.4-3.8l0.4-6.8l1.4-5.4c1.3-4.9,4-9.4,7.6-13c4.7-4.6,7.5-10.9,7.5-18
			C143.3,66,139.4,58.7,133.4,54.1z"/>
	</g>
	<path class="st3" d="M131.3,133.4c-0.4-0.1-0.7-0.9-1.1-1.4c-0.4-0.6-1.6-1.3-2.1-1.8c-1.9-1.9-3.2-3.5-5.4-5.1
		c-1.7-1.3-4.3-3.7-4.3-4c-0.1-0.8-0.4-1.5-0.5-2.3c-0.3-2.1-0.5-4.2-0.8-6.3c-0.2-1.6-0.5-5,1.5-5.7c2.1-0.7,3.2,2.2,3.4,3.8
		c0.1,1.5-0.1,3,0.5,4.4c0.8,1.7,2.5,2.6,4,3.7c3.7,2.7,5.2,0.7,6.2,11.7c0.1,0.8,0,2-0.6,2.6C131.8,133.4,131.5,133.5,131.3,133.4z
		"/>
</g>
</svg>
