<svg width="248" height="158" viewBox="0 0 248 158" fill="none" xmlns="http://www.w3.org/2000/svg">
<rect width="248" height="158" fill="#F6F6F7"/>
<path d="M115.328 92.9062H126.203V90.1875C126.203 85.5 127.938 83.0625 134.078 79.5C140.453 75.7031 144.016 70.6875 144.016 63.5625V63.4688C144.016 53.2031 135.438 45.7969 122.594 45.7969C108.672 45.7969 101.031 53.8594 100.703 64.8281V64.9219L111.625 64.875L111.719 64.8281C112.047 59.0625 115.938 55.3594 121.984 55.3594C127.891 55.3594 131.828 58.9688 131.828 63.8906V63.9844C131.828 68.5781 129.859 71.1094 124.047 74.625C117.578 78.4219 114.859 82.6406 115.281 89.5781L115.328 92.9062ZM121.281 115.172C126.062 115.172 129.062 112.266 129.062 107.812C129.062 103.312 126.062 100.406 121.281 100.406C116.594 100.406 113.5 103.312 113.5 107.812C113.5 112.266 116.594 115.172 121.281 115.172Z" fill="#E9E9EC"/>
</svg>
