<?xml version="1.0" encoding="utf-8"?>
<!-- Generator: Adobe Illustrator 27.0.1, SVG Export Plug-In . SVG Version: 6.00 Build 0)  -->
<svg version="1.1" id="Layer_1" xmlns="http://www.w3.org/2000/svg" xmlns:xlink="http://www.w3.org/1999/xlink" x="0px" y="0px"
	 viewBox="0 0 248 158" style="enable-background:new 0 0 248 158;" xml:space="preserve">
<style type="text/css">
	.st0{fill:#F6F6F7;}
	.st1{fill:#FEEAE2;}
	.st2{fill:#FF6C2F;}
	.st3{opacity:0.15;}
	.st4{fill:#FFFFFF;}
</style>
<rect class="st0" width="248" height="158"/>
<path class="st1" d="M14,10h130c2.2,0,4,1.8,4,4v87c0,2.2-1.8,4-4,4H14c-2.2,0-4-1.8-4-4V14C10,11.8,11.8,10,14,10z"/>
<path class="st1" d="M14,111h22c2.2,0,4,1.8,4,4v22c0,2.2-1.8,4-4,4H14c-2.2,0-4-1.8-4-4v-22C10,112.8,11.8,111,14,111z"/>
<path class="st1" d="M50,111h22c2.2,0,4,1.8,4,4v22c0,2.2-1.8,4-4,4H50c-2.2,0-4-1.8-4-4v-22C46,112.8,47.8,111,50,111z"/>
<path class="st1" d="M86,111h22c2.2,0,4,1.8,4,4v22c0,2.2-1.8,4-4,4H86c-2.2,0-4-1.8-4-4v-22C82,112.8,83.8,111,86,111z"/>
<path class="st1" d="M122,111h22c2.2,0,4,1.8,4,4v22c0,2.2-1.8,4-4,4h-22c-2.2,0-4-1.8-4-4v-22C118,112.8,119.8,111,122,111z"/>
<path class="st1" d="M158,38h78c2.2,0,4,1.8,4,4l0,0c0,2.2-1.8,4-4,4h-78c-2.2,0-4-1.8-4-4l0,0C154,39.8,155.8,38,158,38z"/>
<path class="st1" d="M158,52h36c2.2,0,4,1.8,4,4l0,0c0,2.2-1.8,4-4,4h-36c-2.2,0-4-1.8-4-4l0,0C154,53.8,155.8,52,158,52z"/>
<path class="st1" d="M158,97h12c2.2,0,4,1.8,4,4l0,0c0,2.2-1.8,4-4,4h-12c-2.2,0-4-1.8-4-4l0,0C154,98.8,155.8,97,158,97z"/>
<path class="st1" d="M184,97h12c2.2,0,4,1.8,4,4l0,0c0,2.2-1.8,4-4,4h-12c-2.2,0-4-1.8-4-4l0,0C180,98.8,181.8,97,184,97z"/>
<path class="st1" d="M210,97h12c2.2,0,4,1.8,4,4l0,0c0,2.2-1.8,4-4,4h-12c-2.2,0-4-1.8-4-4l0,0C206,98.8,207.8,97,210,97z"/>
<rect class="st2" width="248" height="28"/>
<g>
	<g>
		<path class="st1" d="M217.5,74.7h-55c-4.7,0-8.5,3.8-8.5,8.5v0c0,4.7,3.8,8.5,8.5,8.5h55c4.7,0,8.5-3.8,8.5-8.5v0
			C226,78.5,222.2,74.7,217.5,74.7z"/>
		<path class="st3" d="M157.4,76.4c-1,1.4-1.5,3-1.5,4.8v0c0,4.7,3.8,8.5,8.5,8.5h55c1.9,0,3.7-0.6,5.1-1.7c-1.5,2.2-4.1,3.7-7,3.7
			h-55c-4.7,0-8.5-3.8-8.5-8.5v0C154,80.4,155.3,78,157.4,76.4z"/>
	</g>
	<g>
		<path class="st4" d="M214,83.7h5.5c0.3,0,0.6-0.2,0.7-0.6l0.9-2.9c0.1-0.2,0-0.4-0.1-0.6c-0.1-0.2-0.3-0.3-0.5-0.3l-6.2,0
			c-0.2,0-0.3,0.1-0.3,0.3c0,0.2,0.1,0.3,0.3,0.3l6.2,0c0,0,0,0,0,0c0,0,0,0,0,0l-0.9,2.9c0,0,0,0,0,0c0,0-0.1,0.1-0.1,0.1H214
			l-1.3-5c0-0.1-0.2-0.2-0.3-0.2h-1.4c-0.2,0-0.3,0.1-0.3,0.3s0.1,0.3,0.3,0.3h1.1l1.2,4.9l-0.2,0.6c-0.1,0.2-0.1,0.5,0.1,0.7
			c0.1,0.2,0.4,0.3,0.6,0.3h6.2c0.2,0,0.3-0.1,0.3-0.3c0-0.2-0.1-0.3-0.3-0.3h-6.2c0,0-0.1,0-0.1,0c0,0,0-0.1,0-0.1L214,83.7z"/>
		<path class="st4" d="M215.4,85.3c-0.6,0-1,0.5-1,1c0,0.6,0.5,1,1,1c0.6,0,1-0.5,1-1C216.4,85.7,216,85.3,215.4,85.3z M215.8,86.3
			c0,0.2-0.2,0.4-0.4,0.4s-0.4-0.2-0.4-0.4c0-0.2,0.2-0.4,0.4-0.4S215.8,86.1,215.8,86.3z"/>
		<path class="st4" d="M218.4,85.3c-0.6,0-1,0.5-1,1c0,0.6,0.5,1,1,1c0.6,0,1-0.5,1-1C219.5,85.7,219,85.3,218.4,85.3z M218.9,86.3
			c0,0.2-0.2,0.4-0.4,0.4c-0.2,0-0.4-0.2-0.4-0.4c0-0.2,0.2-0.4,0.4-0.4C218.7,85.9,218.9,86.1,218.9,86.3z"/>
	</g>
	<g>
		<path class="st4" d="M162.8,85.1l-0.2-0.6h-2l-0.2,0.6c-0.1,0.2-0.2,0.4-0.2,0.5c-0.1,0.1-0.2,0.1-0.3,0.1c-0.1,0-0.2,0-0.3-0.1
			c-0.1-0.1-0.1-0.2-0.1-0.3c0-0.1,0-0.1,0-0.2c0-0.1,0.1-0.2,0.1-0.3l1.2-3.1c0-0.1,0.1-0.2,0.1-0.3c0-0.1,0.1-0.2,0.2-0.3
			c0.1-0.1,0.1-0.2,0.2-0.2c0.1-0.1,0.2-0.1,0.3-0.1c0.1,0,0.2,0,0.3,0.1c0.1,0.1,0.2,0.1,0.2,0.2c0.1,0.1,0.1,0.2,0.1,0.3
			c0,0.1,0.1,0.2,0.1,0.4l1.3,3.1c0.1,0.2,0.1,0.4,0.1,0.5c0,0.1,0,0.2-0.1,0.3c-0.1,0.1-0.2,0.1-0.3,0.1c-0.1,0-0.1,0-0.2,0
			c-0.1,0-0.1-0.1-0.1-0.1c0,0-0.1-0.1-0.1-0.2C162.8,85.3,162.8,85.2,162.8,85.1z M160.8,83.7h1.4l-0.7-2L160.8,83.7z"/>
		<path class="st4" d="M165.5,80.8h1.3c0.3,0,0.6,0,0.9,0.1c0.2,0.1,0.5,0.2,0.6,0.3c0.5,0.4,0.8,1.1,0.8,2c0,0.3,0,0.6-0.1,0.8
			c-0.1,0.2-0.1,0.5-0.2,0.6c-0.1,0.2-0.2,0.4-0.4,0.5c-0.1,0.1-0.3,0.2-0.4,0.3c-0.2,0.1-0.3,0.1-0.5,0.1c-0.2,0-0.4,0-0.6,0h-1.3
			c-0.2,0-0.3,0-0.4-0.1c-0.1-0.1-0.1-0.1-0.2-0.2c0-0.1,0-0.2,0-0.4v-3.5c0-0.2,0-0.4,0.1-0.5C165.1,80.9,165.3,80.8,165.5,80.8z
			 M165.9,81.6v3.3h0.7c0.2,0,0.3,0,0.4,0c0.1,0,0.2,0,0.3-0.1c0.1,0,0.2-0.1,0.3-0.1c0.3-0.3,0.5-0.8,0.5-1.4
			c0-0.5-0.1-0.8-0.2-1.1c-0.1-0.2-0.3-0.4-0.5-0.5c-0.2-0.1-0.5-0.1-0.8-0.1H165.9z"/>
		<path class="st4" d="M170.8,80.8h1.3c0.3,0,0.6,0,0.9,0.1c0.2,0.1,0.5,0.2,0.6,0.3c0.5,0.4,0.8,1.1,0.8,2c0,0.3,0,0.6-0.1,0.8
			c-0.1,0.2-0.1,0.5-0.2,0.6c-0.1,0.2-0.2,0.4-0.4,0.5c-0.1,0.1-0.3,0.2-0.4,0.3c-0.2,0.1-0.3,0.1-0.5,0.1c-0.2,0-0.4,0-0.6,0h-1.3
			c-0.2,0-0.3,0-0.4-0.1c-0.1-0.1-0.1-0.1-0.2-0.2c0-0.1,0-0.2,0-0.4v-3.5c0-0.2,0-0.4,0.1-0.5C170.4,80.9,170.6,80.8,170.8,80.8z
			 M171.2,81.6v3.3h0.7c0.2,0,0.3,0,0.4,0c0.1,0,0.2,0,0.3-0.1c0.1,0,0.2-0.1,0.3-0.1c0.3-0.3,0.5-0.8,0.5-1.4
			c0-0.5-0.1-0.8-0.2-1.1c-0.1-0.2-0.3-0.4-0.5-0.5c-0.2-0.1-0.5-0.1-0.8-0.1H171.2z"/>
		<path class="st4" d="M180.7,81.6h-1.1v3.5c0,0.2,0,0.4-0.1,0.4c-0.1,0.1-0.2,0.1-0.3,0.1c-0.1,0-0.3,0-0.4-0.1
			c-0.1-0.1-0.1-0.2-0.1-0.4v-3.5h-1.1c-0.2,0-0.3,0-0.4-0.1c-0.1-0.1-0.1-0.2-0.1-0.3c0-0.1,0-0.2,0.1-0.3c0.1-0.1,0.2-0.1,0.4-0.1
			h3.1c0.2,0,0.3,0,0.4,0.1c0.1,0.1,0.1,0.2,0.1,0.3c0,0.1,0,0.2-0.1,0.3C181,81.6,180.8,81.6,180.7,81.6z"/>
		<path class="st4" d="M184.1,80.7c0.5,0,0.9,0.1,1.3,0.3c0.4,0.2,0.6,0.5,0.8,0.9c0.2,0.4,0.3,0.8,0.3,1.3c0,0.4-0.1,0.7-0.2,1
			c-0.1,0.3-0.3,0.6-0.5,0.8c-0.2,0.2-0.4,0.4-0.7,0.5c-0.3,0.1-0.6,0.2-1,0.2c-0.4,0-0.7-0.1-1-0.2c-0.3-0.1-0.5-0.3-0.7-0.5
			c-0.2-0.2-0.4-0.5-0.5-0.8c-0.1-0.3-0.2-0.6-0.2-1c0-0.4,0.1-0.7,0.2-1c0.1-0.3,0.3-0.6,0.5-0.8c0.2-0.2,0.4-0.4,0.7-0.5
			C183.4,80.8,183.8,80.7,184.1,80.7z M185.5,83.2c0-0.4-0.1-0.7-0.2-0.9c-0.1-0.3-0.3-0.5-0.5-0.6c-0.2-0.1-0.5-0.2-0.7-0.2
			c-0.2,0-0.4,0-0.5,0.1c-0.2,0.1-0.3,0.2-0.4,0.3c-0.1,0.1-0.2,0.3-0.3,0.5c-0.1,0.2-0.1,0.5-0.1,0.7c0,0.3,0,0.5,0.1,0.7
			c0.1,0.2,0.2,0.4,0.3,0.6c0.1,0.1,0.3,0.3,0.4,0.3c0.2,0.1,0.3,0.1,0.5,0.1c0.3,0,0.5-0.1,0.7-0.2c0.2-0.1,0.4-0.3,0.5-0.6
			C185.5,83.9,185.5,83.6,185.5,83.2z"/>
		<path class="st4" d="M193.8,84.1c0,0.2,0,0.3-0.1,0.5c-0.1,0.2-0.2,0.4-0.4,0.5c-0.2,0.2-0.4,0.3-0.6,0.4
			c-0.3,0.1-0.5,0.2-0.9,0.2c-0.3,0-0.5,0-0.7-0.1c-0.2,0-0.4-0.1-0.6-0.2c-0.2-0.1-0.3-0.2-0.5-0.4c-0.1-0.2-0.2-0.3-0.3-0.5
			c-0.1-0.2-0.2-0.4-0.2-0.6c0-0.2-0.1-0.4-0.1-0.7c0-0.4,0.1-0.7,0.2-1c0.1-0.3,0.3-0.6,0.5-0.8c0.2-0.2,0.5-0.4,0.7-0.5
			c0.3-0.1,0.6-0.2,0.9-0.2c0.4,0,0.7,0.1,1,0.2c0.3,0.2,0.5,0.3,0.7,0.6c0.2,0.2,0.2,0.4,0.2,0.7c0,0.1,0,0.2-0.1,0.3
			c-0.1,0.1-0.2,0.1-0.3,0.1c-0.1,0-0.2,0-0.3-0.1c-0.1-0.1-0.1-0.2-0.2-0.3c-0.1-0.2-0.3-0.4-0.4-0.5c-0.2-0.1-0.4-0.2-0.6-0.2
			c-0.4,0-0.7,0.2-1,0.5c-0.2,0.3-0.4,0.7-0.4,1.3c0,0.4,0.1,0.7,0.2,0.9c0.1,0.2,0.3,0.4,0.4,0.6c0.2,0.1,0.4,0.2,0.7,0.2
			c0.3,0,0.5-0.1,0.7-0.2c0.2-0.1,0.3-0.3,0.4-0.6c0-0.1,0.1-0.2,0.2-0.3c0.1-0.1,0.2-0.1,0.3-0.1c0.1,0,0.2,0,0.3,0.1
			C193.8,83.9,193.8,84,193.8,84.1z"/>
		<path class="st4" d="M198.1,85.1l-0.2-0.6h-2l-0.2,0.6c-0.1,0.2-0.2,0.4-0.2,0.5c-0.1,0.1-0.2,0.1-0.3,0.1c-0.1,0-0.2,0-0.3-0.1
			c-0.1-0.1-0.1-0.2-0.1-0.3c0-0.1,0-0.1,0-0.2c0-0.1,0.1-0.2,0.1-0.3l1.2-3.1c0-0.1,0.1-0.2,0.1-0.3c0-0.1,0.1-0.2,0.2-0.3
			c0.1-0.1,0.1-0.2,0.2-0.2c0.1-0.1,0.2-0.1,0.3-0.1c0.1,0,0.2,0,0.3,0.1c0.1,0.1,0.2,0.1,0.2,0.2c0.1,0.1,0.1,0.2,0.1,0.3
			c0,0.1,0.1,0.2,0.1,0.4l1.3,3.1c0.1,0.2,0.1,0.4,0.1,0.5c0,0.1,0,0.2-0.1,0.3c-0.1,0.1-0.2,0.1-0.3,0.1c-0.1,0-0.1,0-0.2,0
			c-0.1,0-0.1-0.1-0.1-0.1c0,0-0.1-0.1-0.1-0.2C198.2,85.3,198.2,85.2,198.1,85.1z M196.2,83.7h1.4l-0.7-2L196.2,83.7z"/>
		<path class="st4" d="M201.5,83.6h-0.3v1.6c0,0.2,0,0.4-0.1,0.5c-0.1,0.1-0.2,0.1-0.4,0.1c-0.2,0-0.3-0.1-0.4-0.2
			c-0.1-0.1-0.1-0.2-0.1-0.4v-3.7c0-0.2,0-0.4,0.1-0.5c0.1-0.1,0.2-0.1,0.5-0.1h1.6c0.2,0,0.4,0,0.6,0c0.2,0,0.3,0.1,0.4,0.1
			c0.2,0.1,0.3,0.2,0.4,0.3c0.1,0.1,0.2,0.3,0.3,0.4c0.1,0.2,0.1,0.3,0.1,0.5c0,0.4-0.1,0.6-0.3,0.9c-0.2,0.2-0.5,0.4-0.9,0.5
			c0.2,0.1,0.3,0.2,0.5,0.4c0.2,0.2,0.3,0.4,0.4,0.6c0.1,0.2,0.2,0.4,0.3,0.5c0.1,0.2,0.1,0.3,0.1,0.3c0,0.1,0,0.1-0.1,0.2
			c0,0.1-0.1,0.1-0.2,0.1c-0.1,0-0.2,0.1-0.2,0.1c-0.1,0-0.2,0-0.3-0.1c-0.1-0.1-0.1-0.1-0.2-0.2c-0.1-0.1-0.1-0.2-0.2-0.3l-0.4-0.7
			c-0.1-0.2-0.3-0.4-0.4-0.5c-0.1-0.1-0.2-0.2-0.3-0.3C201.9,83.6,201.7,83.6,201.5,83.6z M202.1,81.5h-0.9v1.3h0.9
			c0.2,0,0.4,0,0.6-0.1c0.2,0,0.3-0.1,0.4-0.2c0.1-0.1,0.1-0.2,0.1-0.4c0-0.1,0-0.3-0.1-0.4c-0.1-0.1-0.2-0.2-0.3-0.2
			C202.7,81.6,202.4,81.5,202.1,81.5z"/>
		<path class="st4" d="M208.2,81.6h-1.1v3.5c0,0.2,0,0.4-0.1,0.4c-0.1,0.1-0.2,0.1-0.3,0.1c-0.1,0-0.3,0-0.4-0.1
			c-0.1-0.1-0.1-0.2-0.1-0.4v-3.5h-1.1c-0.2,0-0.3,0-0.4-0.1c-0.1-0.1-0.1-0.2-0.1-0.3c0-0.1,0-0.2,0.1-0.3c0.1-0.1,0.2-0.1,0.4-0.1
			h3.1c0.2,0,0.3,0,0.4,0.1c0.1,0.1,0.1,0.2,0.1,0.3c0,0.1,0,0.2-0.1,0.3C208.5,81.6,208.4,81.6,208.2,81.6z"/>
	</g>
</g>
</svg>
