<svg width="326" height="34" viewBox="0 0 326 34" fill="none" xmlns="http://www.w3.org/2000/svg">
<path d="M84.9497 3.51H81.7097V12H79.2497V3.51H75.9947V1.35H84.9497V3.51ZM93.5461 12H91.1461V7.575C91.1461 7.065 91.0461 6.69 90.8461 6.45C90.6461 6.21 90.3711 6.09 90.0211 6.09C89.8811 6.09 89.7261 6.125 89.5561 6.195C89.3961 6.255 89.2361 6.35 89.0761 6.48C88.9261 6.6 88.7861 6.745 88.6561 6.915C88.5261 7.085 88.4261 7.275 88.3561 7.485V12H85.9561V1.05H88.3561V5.445C88.6461 4.975 89.0261 4.615 89.4961 4.365C89.9761 4.105 90.5011 3.975 91.0711 3.975C91.6011 3.975 92.0261 4.07 92.3461 4.26C92.6761 4.44 92.9261 4.675 93.0961 4.965C93.2761 5.245 93.3961 5.565 93.4561 5.925C93.5161 6.275 93.5461 6.62 93.5461 6.96V12ZM97.3757 12.15C96.9857 12.15 96.6207 12.09 96.2807 11.97C95.9507 11.84 95.6657 11.665 95.4257 11.445C95.1857 11.215 94.9957 10.95 94.8557 10.65C94.7157 10.34 94.6457 10.005 94.6457 9.645C94.6457 9.255 94.7257 8.9 94.8857 8.58C95.0557 8.26 95.2907 7.985 95.5907 7.755C95.8907 7.525 96.2457 7.345 96.6557 7.215C97.0657 7.085 97.5207 7.02 98.0207 7.02C98.3507 7.02 98.6707 7.05 98.9807 7.11C99.2907 7.16 99.5607 7.24 99.7907 7.35V6.99C99.7907 6.08 99.2657 5.625 98.2157 5.625C97.7857 5.625 97.3757 5.7 96.9857 5.85C96.5957 5.99 96.1857 6.205 95.7557 6.495L95.0507 4.995C95.5707 4.655 96.1107 4.4 96.6707 4.23C97.2307 4.06 97.8257 3.975 98.4557 3.975C99.6457 3.975 100.566 4.255 101.216 4.815C101.866 5.375 102.191 6.195 102.191 7.275V9.3C102.191 9.54 102.226 9.71 102.296 9.81C102.376 9.9 102.511 9.955 102.701 9.975V12C102.491 12.05 102.301 12.08 102.131 12.09C101.961 12.11 101.806 12.12 101.666 12.12C101.216 12.12 100.876 12.035 100.646 11.865C100.416 11.685 100.271 11.435 100.211 11.115L100.166 10.755C99.8157 11.205 99.3957 11.55 98.9057 11.79C98.4257 12.03 97.9157 12.15 97.3757 12.15ZM98.0807 10.425C98.3407 10.425 98.5907 10.38 98.8307 10.29C99.0807 10.2 99.2857 10.08 99.4457 9.93C99.6757 9.75 99.7907 9.56 99.7907 9.36V8.61C99.5807 8.53 99.3507 8.47 99.1007 8.43C98.8607 8.38 98.6357 8.355 98.4257 8.355C97.9857 8.355 97.6207 8.455 97.3307 8.655C97.0507 8.855 96.9107 9.115 96.9107 9.435C96.9107 9.725 97.0207 9.965 97.2407 10.155C97.4607 10.335 97.7407 10.425 98.0807 10.425ZM111.52 12H109.12V7.575C109.12 7.055 109.02 6.68 108.82 6.45C108.63 6.21 108.375 6.09 108.055 6.09C107.885 6.09 107.715 6.125 107.545 6.195C107.375 6.265 107.21 6.365 107.05 6.495C106.89 6.615 106.745 6.76 106.615 6.93C106.495 7.1 106.4 7.285 106.33 7.485V12H103.93V4.125H106.09V5.445C106.38 4.975 106.79 4.615 107.32 4.365C107.85 4.105 108.46 3.975 109.15 3.975C109.66 3.975 110.07 4.07 110.38 4.26C110.69 4.44 110.93 4.68 111.1 4.98C111.27 5.27 111.38 5.59 111.43 5.94C111.49 6.29 111.52 6.63 111.52 6.96V12ZM118.409 12L116.354 8.835L115.514 9.705V12H113.114V1.05H115.514V7.395L118.169 4.125H120.719L117.884 7.515L120.959 12H118.409ZM124.791 13.185C124.991 13.255 125.176 13.305 125.346 13.335C125.526 13.365 125.686 13.38 125.826 13.38C126.116 13.38 126.341 13.28 126.501 13.08C126.661 12.88 126.806 12.52 126.936 12L123.936 4.125H126.411L128.241 9.945L129.816 4.125H132.066L129.066 13.275C128.856 13.925 128.481 14.45 127.941 14.85C127.401 15.26 126.761 15.465 126.021 15.465C125.821 15.465 125.616 15.445 125.406 15.405C125.206 15.375 125.001 15.32 124.791 15.24V13.185ZM136.493 12.15C135.823 12.15 135.223 12.04 134.693 11.82C134.173 11.6 133.733 11.305 133.373 10.935C133.013 10.555 132.738 10.12 132.548 9.63C132.368 9.13 132.278 8.61 132.278 8.07C132.278 7.53 132.368 7.015 132.548 6.525C132.738 6.025 133.013 5.59 133.373 5.22C133.733 4.84 134.173 4.54 134.693 4.32C135.223 4.09 135.823 3.975 136.493 3.975C137.163 3.975 137.758 4.09 138.278 4.32C138.798 4.54 139.238 4.84 139.598 5.22C139.958 5.59 140.233 6.025 140.423 6.525C140.613 7.015 140.708 7.53 140.708 8.07C140.708 8.61 140.613 9.13 140.423 9.63C140.243 10.12 139.973 10.555 139.613 10.935C139.253 11.305 138.808 11.6 138.278 11.82C137.758 12.04 137.163 12.15 136.493 12.15ZM134.738 8.07C134.738 8.69 134.903 9.19 135.233 9.57C135.563 9.94 135.983 10.125 136.493 10.125C136.743 10.125 136.973 10.075 137.183 9.975C137.393 9.875 137.573 9.735 137.723 9.555C137.883 9.375 138.008 9.16 138.098 8.91C138.188 8.65 138.233 8.37 138.233 8.07C138.233 7.45 138.068 6.955 137.738 6.585C137.408 6.205 136.993 6.015 136.493 6.015C136.243 6.015 136.008 6.065 135.788 6.165C135.578 6.265 135.393 6.405 135.233 6.585C135.083 6.765 134.963 6.985 134.873 7.245C134.783 7.495 134.738 7.77 134.738 8.07ZM144.283 12.15C143.473 12.15 142.858 11.9 142.438 11.4C142.028 10.89 141.823 10.145 141.823 9.165V4.125H144.223V8.64C144.223 9.12 144.318 9.49 144.508 9.75C144.698 10 144.968 10.125 145.318 10.125C145.638 10.125 145.948 10.04 146.248 9.87C146.548 9.7 146.813 9.405 147.043 8.985V4.125H149.443V9.3C149.443 9.54 149.478 9.71 149.548 9.81C149.628 9.9 149.763 9.955 149.953 9.975V12C149.723 12.05 149.528 12.08 149.368 12.09C149.208 12.11 149.063 12.12 148.933 12.12C148.073 12.12 147.583 11.785 147.463 11.115L147.418 10.635C147.058 11.155 146.608 11.54 146.068 11.79C145.538 12.03 144.943 12.15 144.283 12.15ZM155.314 12V6.585H154.309V4.77H155.314V4.125C155.314 3.635 155.379 3.19 155.509 2.79C155.639 2.39 155.824 2.05 156.064 1.77C156.304 1.49 156.594 1.275 156.934 1.125C157.274 0.975 157.649 0.9 158.059 0.9C158.699 0.9 159.384 1.055 160.114 1.365L159.679 3.165C159.519 3.095 159.339 3.04 159.139 3C158.949 2.95 158.769 2.925 158.599 2.925C158.009 2.925 157.714 3.295 157.714 4.035V4.77H159.544V6.585H157.714V12H155.314ZM163.93 12.15C163.26 12.15 162.66 12.04 162.13 11.82C161.61 11.6 161.17 11.305 160.81 10.935C160.45 10.555 160.175 10.12 159.985 9.63C159.805 9.13 159.715 8.61 159.715 8.07C159.715 7.53 159.805 7.015 159.985 6.525C160.175 6.025 160.45 5.59 160.81 5.22C161.17 4.84 161.61 4.54 162.13 4.32C162.66 4.09 163.26 3.975 163.93 3.975C164.6 3.975 165.195 4.09 165.715 4.32C166.235 4.54 166.675 4.84 167.035 5.22C167.395 5.59 167.67 6.025 167.86 6.525C168.05 7.015 168.145 7.53 168.145 8.07C168.145 8.61 168.05 9.13 167.86 9.63C167.68 10.12 167.41 10.555 167.05 10.935C166.69 11.305 166.245 11.6 165.715 11.82C165.195 12.04 164.6 12.15 163.93 12.15ZM162.175 8.07C162.175 8.69 162.34 9.19 162.67 9.57C163 9.94 163.42 10.125 163.93 10.125C164.18 10.125 164.41 10.075 164.62 9.975C164.83 9.875 165.01 9.735 165.16 9.555C165.32 9.375 165.445 9.16 165.535 8.91C165.625 8.65 165.67 8.37 165.67 8.07C165.67 7.45 165.505 6.955 165.175 6.585C164.845 6.205 164.43 6.015 163.93 6.015C163.68 6.015 163.445 6.065 163.225 6.165C163.015 6.265 162.83 6.405 162.67 6.585C162.52 6.765 162.4 6.985 162.31 7.245C162.22 7.495 162.175 7.77 162.175 8.07ZM174.33 6.18C173.75 6.19 173.225 6.285 172.755 6.465C172.285 6.645 171.945 6.915 171.735 7.275V12H169.335V4.125H171.54V5.715C171.81 5.185 172.155 4.77 172.575 4.47C173.005 4.17 173.46 4.015 173.94 4.005C174.05 4.005 174.13 4.005 174.18 4.005C174.23 4.005 174.28 4.01 174.33 4.02V6.18ZM178.476 12V4.125H180.876V12H178.476ZM178.476 3.225V1.05H180.876V3.225H178.476ZM190.109 12H187.709V7.575C187.709 7.055 187.609 6.68 187.409 6.45C187.219 6.21 186.964 6.09 186.644 6.09C186.474 6.09 186.304 6.125 186.134 6.195C185.964 6.265 185.799 6.365 185.639 6.495C185.479 6.615 185.334 6.76 185.204 6.93C185.084 7.1 184.989 7.285 184.919 7.485V12H182.519V4.125H184.679V5.445C184.969 4.975 185.379 4.615 185.909 4.365C186.439 4.105 187.049 3.975 187.739 3.975C188.249 3.975 188.659 4.07 188.969 4.26C189.279 4.44 189.519 4.68 189.689 4.98C189.859 5.27 189.969 5.59 190.019 5.94C190.079 6.29 190.109 6.63 190.109 6.96V12ZM194.808 12.15C194.138 12.15 193.478 12.045 192.828 11.835C192.178 11.615 191.628 11.3 191.178 10.89L192.033 9.42C192.513 9.75 192.978 10.005 193.428 10.185C193.888 10.365 194.328 10.455 194.748 10.455C195.058 10.455 195.298 10.4 195.468 10.29C195.638 10.18 195.723 10.02 195.723 9.81C195.723 9.6 195.613 9.435 195.393 9.315C195.183 9.185 194.808 9.05 194.268 8.91C193.738 8.76 193.288 8.615 192.918 8.475C192.558 8.335 192.263 8.18 192.033 8.01C191.803 7.84 191.638 7.645 191.538 7.425C191.438 7.205 191.388 6.945 191.388 6.645C191.388 6.245 191.468 5.88 191.628 5.55C191.788 5.22 192.008 4.94 192.288 4.71C192.568 4.48 192.898 4.3 193.278 4.17C193.668 4.04 194.088 3.975 194.538 3.975C195.128 3.975 195.678 4.055 196.188 4.215C196.708 4.375 197.208 4.665 197.688 5.085L196.758 6.525C196.308 6.215 195.908 5.99 195.558 5.85C195.208 5.71 194.868 5.64 194.538 5.64C194.278 5.64 194.058 5.695 193.878 5.805C193.698 5.905 193.608 6.07 193.608 6.3C193.608 6.52 193.703 6.685 193.893 6.795C194.093 6.905 194.458 7.025 194.988 7.155C195.548 7.305 196.018 7.455 196.398 7.605C196.788 7.755 197.103 7.925 197.343 8.115C197.583 8.295 197.758 8.505 197.868 8.745C197.978 8.985 198.033 9.27 198.033 9.6C198.033 10.38 197.743 11 197.163 11.46C196.583 11.92 195.798 12.15 194.808 12.15ZM204.289 11.58C203.959 11.72 203.579 11.85 203.149 11.97C202.729 12.09 202.304 12.15 201.874 12.15C201.574 12.15 201.289 12.11 201.019 12.03C200.759 11.96 200.529 11.845 200.329 11.685C200.129 11.515 199.969 11.295 199.849 11.025C199.739 10.755 199.684 10.43 199.684 10.05V5.94H198.679V4.125H199.684V1.62H202.084V4.125H203.689V5.94H202.084V9.225C202.084 9.485 202.149 9.675 202.279 9.795C202.409 9.905 202.574 9.96 202.774 9.96C202.954 9.96 203.139 9.93 203.329 9.87C203.519 9.81 203.684 9.745 203.824 9.675L204.289 11.58ZM207.459 12.15C207.069 12.15 206.704 12.09 206.364 11.97C206.034 11.84 205.749 11.665 205.509 11.445C205.269 11.215 205.079 10.95 204.939 10.65C204.799 10.34 204.729 10.005 204.729 9.645C204.729 9.255 204.809 8.9 204.969 8.58C205.139 8.26 205.374 7.985 205.674 7.755C205.974 7.525 206.329 7.345 206.739 7.215C207.149 7.085 207.604 7.02 208.104 7.02C208.434 7.02 208.754 7.05 209.064 7.11C209.374 7.16 209.644 7.24 209.874 7.35V6.99C209.874 6.08 209.349 5.625 208.299 5.625C207.869 5.625 207.459 5.7 207.069 5.85C206.679 5.99 206.269 6.205 205.839 6.495L205.134 4.995C205.654 4.655 206.194 4.4 206.754 4.23C207.314 4.06 207.909 3.975 208.539 3.975C209.729 3.975 210.649 4.255 211.299 4.815C211.949 5.375 212.274 6.195 212.274 7.275V9.3C212.274 9.54 212.309 9.71 212.379 9.81C212.459 9.9 212.594 9.955 212.784 9.975V12C212.574 12.05 212.384 12.08 212.214 12.09C212.044 12.11 211.889 12.12 211.749 12.12C211.299 12.12 210.959 12.035 210.729 11.865C210.499 11.685 210.354 11.435 210.294 11.115L210.249 10.755C209.899 11.205 209.479 11.55 208.989 11.79C208.509 12.03 207.999 12.15 207.459 12.15ZM208.164 10.425C208.424 10.425 208.674 10.38 208.914 10.29C209.164 10.2 209.369 10.08 209.529 9.93C209.759 9.75 209.874 9.56 209.874 9.36V8.61C209.664 8.53 209.434 8.47 209.184 8.43C208.944 8.38 208.719 8.355 208.509 8.355C208.069 8.355 207.704 8.455 207.414 8.655C207.134 8.855 206.994 9.115 206.994 9.435C206.994 9.725 207.104 9.965 207.324 10.155C207.544 10.335 207.824 10.425 208.164 10.425ZM213.983 1.05H216.383V9.195C216.383 9.795 216.638 10.095 217.148 10.095C217.268 10.095 217.398 10.08 217.538 10.05C217.688 10.01 217.823 9.955 217.943 9.885L218.258 11.685C217.958 11.825 217.613 11.935 217.223 12.015C216.833 12.095 216.468 12.135 216.128 12.135C215.438 12.135 214.908 11.955 214.538 11.595C214.168 11.235 213.983 10.715 213.983 10.035V1.05ZM219.007 1.05H221.407V9.195C221.407 9.795 221.662 10.095 222.172 10.095C222.292 10.095 222.422 10.08 222.562 10.05C222.712 10.01 222.847 9.955 222.967 9.885L223.282 11.685C222.982 11.825 222.637 11.935 222.247 12.015C221.857 12.095 221.492 12.135 221.152 12.135C220.462 12.135 219.932 11.955 219.562 11.595C219.192 11.235 219.007 10.715 219.007 10.035V1.05ZM224.062 12V4.125H226.462V12H224.062ZM224.062 3.225V1.05H226.462V3.225H224.062ZM235.695 12H233.295V7.575C233.295 7.055 233.195 6.68 232.995 6.45C232.805 6.21 232.55 6.09 232.23 6.09C232.06 6.09 231.89 6.125 231.72 6.195C231.55 6.265 231.385 6.365 231.225 6.495C231.065 6.615 230.92 6.76 230.79 6.93C230.67 7.1 230.575 7.285 230.505 7.485V12H228.105V4.125H230.265V5.445C230.555 4.975 230.965 4.615 231.495 4.365C232.025 4.105 232.635 3.975 233.325 3.975C233.835 3.975 234.245 4.07 234.555 4.26C234.865 4.44 235.105 4.68 235.275 4.98C235.445 5.27 235.555 5.59 235.605 5.94C235.665 6.29 235.695 6.63 235.695 6.96V12ZM240.349 12.03C239.829 12.03 239.354 11.925 238.924 11.715C238.494 11.505 238.124 11.22 237.814 10.86C237.514 10.5 237.279 10.08 237.109 9.6C236.939 9.12 236.854 8.605 236.854 8.055C236.854 7.475 236.944 6.94 237.124 6.45C237.304 5.95 237.554 5.52 237.874 5.16C238.194 4.79 238.579 4.5 239.029 4.29C239.479 4.08 239.974 3.975 240.514 3.975C241.114 3.975 241.634 4.105 242.074 4.365C242.524 4.615 242.884 4.965 243.154 5.415V4.125H245.239V11.46C245.239 12.06 245.124 12.6 244.894 13.08C244.674 13.56 244.364 13.965 243.964 14.295C243.564 14.635 243.084 14.895 242.524 15.075C241.964 15.255 241.349 15.345 240.679 15.345C239.829 15.345 239.104 15.21 238.504 14.94C237.904 14.67 237.379 14.28 236.929 13.77L238.219 12.465C238.509 12.795 238.869 13.055 239.299 13.245C239.729 13.445 240.189 13.545 240.679 13.545C240.969 13.545 241.244 13.505 241.504 13.425C241.764 13.345 241.994 13.22 242.194 13.05C242.394 12.89 242.549 12.675 242.659 12.405C242.779 12.145 242.839 11.83 242.839 11.46V10.695C242.599 11.135 242.254 11.47 241.804 11.7C241.354 11.92 240.869 12.03 240.349 12.03ZM241.174 10.125C241.544 10.125 241.874 10.025 242.164 9.825C242.454 9.615 242.679 9.35 242.839 9.03V7.38C242.679 6.96 242.434 6.63 242.104 6.39C241.774 6.14 241.424 6.015 241.054 6.015C240.794 6.015 240.554 6.075 240.334 6.195C240.124 6.305 239.939 6.46 239.779 6.66C239.629 6.85 239.509 7.075 239.419 7.335C239.339 7.585 239.299 7.845 239.299 8.115C239.299 8.405 239.344 8.675 239.434 8.925C239.534 9.165 239.669 9.375 239.839 9.555C240.009 9.735 240.204 9.875 240.424 9.975C240.654 10.075 240.904 10.125 241.174 10.125ZM0.406709 24.585C0.406709 23.945 0.526709 23.31 0.766709 22.68C1.00671 22.04 1.35671 21.47 1.81671 20.97C2.27671 20.47 2.83671 20.065 3.49671 19.755C4.15671 19.445 4.90671 19.29 5.74671 19.29C6.74671 19.29 7.61171 19.505 8.34171 19.935C9.08171 20.365 9.63171 20.925 9.99171 21.615L8.10171 22.935C7.98171 22.655 7.82671 22.425 7.63671 22.245C7.45671 22.055 7.25671 21.905 7.03671 21.795C6.81671 21.675 6.59171 21.595 6.36171 21.555C6.13171 21.505 5.90671 21.48 5.68671 21.48C5.21671 21.48 4.80671 21.575 4.45671 21.765C4.10671 21.955 3.81671 22.2 3.58671 22.5C3.35671 22.8 3.18671 23.14 3.07671 23.52C2.96671 23.9 2.91171 24.285 2.91171 24.675C2.91171 25.095 2.97671 25.5 3.10671 25.89C3.23671 26.28 3.42171 26.625 3.66171 26.925C3.91171 27.225 4.20671 27.465 4.54671 27.645C4.89671 27.815 5.28671 27.9 5.71671 27.9C5.93671 27.9 6.16171 27.875 6.39171 27.825C6.63171 27.765 6.85671 27.68 7.06671 27.57C7.28671 27.45 7.48671 27.3 7.66671 27.12C7.84671 26.93 7.99171 26.7 8.10171 26.43L10.1117 27.615C9.95171 28.005 9.71171 28.355 9.39171 28.665C9.08171 28.975 8.72171 29.235 8.31171 29.445C7.90171 29.655 7.46671 29.815 7.00671 29.925C6.54671 30.035 6.09671 30.09 5.65671 30.09C4.88671 30.09 4.17671 29.935 3.52671 29.625C2.88671 29.305 2.33171 28.885 1.86171 28.365C1.40171 27.845 1.04171 27.255 0.781709 26.595C0.531709 25.935 0.406709 25.265 0.406709 24.585ZM13.3889 30.15C12.9989 30.15 12.6339 30.09 12.2939 29.97C11.9639 29.84 11.6789 29.665 11.4389 29.445C11.1989 29.215 11.0089 28.95 10.8689 28.65C10.7289 28.34 10.6589 28.005 10.6589 27.645C10.6589 27.255 10.7389 26.9 10.8989 26.58C11.0689 26.26 11.3039 25.985 11.6039 25.755C11.9039 25.525 12.2589 25.345 12.6689 25.215C13.0789 25.085 13.5339 25.02 14.0339 25.02C14.3639 25.02 14.6839 25.05 14.9939 25.11C15.3039 25.16 15.5739 25.24 15.8039 25.35V24.99C15.8039 24.08 15.2789 23.625 14.2289 23.625C13.7989 23.625 13.3889 23.7 12.9989 23.85C12.6089 23.99 12.1989 24.205 11.7689 24.495L11.0639 22.995C11.5839 22.655 12.1239 22.4 12.6839 22.23C13.2439 22.06 13.8389 21.975 14.4689 21.975C15.6589 21.975 16.5789 22.255 17.2289 22.815C17.8789 23.375 18.2039 24.195 18.2039 25.275V27.3C18.2039 27.54 18.2389 27.71 18.3089 27.81C18.3889 27.9 18.5239 27.955 18.7139 27.975V30C18.5039 30.05 18.3139 30.08 18.1439 30.09C17.9739 30.11 17.8189 30.12 17.6789 30.12C17.2289 30.12 16.8889 30.035 16.6589 29.865C16.4289 29.685 16.2839 29.435 16.2239 29.115L16.1789 28.755C15.8289 29.205 15.4089 29.55 14.9189 29.79C14.4389 30.03 13.9289 30.15 13.3889 30.15ZM14.0939 28.425C14.3539 28.425 14.6039 28.38 14.8439 28.29C15.0939 28.2 15.2989 28.08 15.4589 27.93C15.6889 27.75 15.8039 27.56 15.8039 27.36V26.61C15.5939 26.53 15.3639 26.47 15.1139 26.43C14.8739 26.38 14.6489 26.355 14.4389 26.355C13.9989 26.355 13.6339 26.455 13.3439 26.655C13.0639 26.855 12.9239 27.115 12.9239 27.435C12.9239 27.725 13.0339 27.965 13.2539 28.155C13.4739 28.335 13.7539 28.425 14.0939 28.425ZM27.5329 30H25.1329V25.575C25.1329 25.055 25.0329 24.68 24.8329 24.45C24.6429 24.21 24.3879 24.09 24.0679 24.09C23.8979 24.09 23.7279 24.125 23.5579 24.195C23.3879 24.265 23.2229 24.365 23.0629 24.495C22.9029 24.615 22.7579 24.76 22.6279 24.93C22.5079 25.1 22.4129 25.285 22.3429 25.485V30H19.9429V22.125H22.1029V23.445C22.3929 22.975 22.8029 22.615 23.3329 22.365C23.8629 22.105 24.4729 21.975 25.1629 21.975C25.6729 21.975 26.0829 22.07 26.3929 22.26C26.7029 22.44 26.9429 22.68 27.1129 22.98C27.2829 23.27 27.3929 23.59 27.4429 23.94C27.5029 24.29 27.5329 24.63 27.5329 24.96V30ZM28.7075 24.585C28.7075 23.945 28.8275 23.31 29.0675 22.68C29.3075 22.04 29.6575 21.47 30.1175 20.97C30.5775 20.47 31.1375 20.065 31.7975 19.755C32.4575 19.445 33.2075 19.29 34.0475 19.29C35.0475 19.29 35.9125 19.505 36.6425 19.935C37.3825 20.365 37.9325 20.925 38.2925 21.615L36.4025 22.935C36.2825 22.655 36.1275 22.425 35.9375 22.245C35.7575 22.055 35.5575 21.905 35.3375 21.795C35.1175 21.675 34.8925 21.595 34.6625 21.555C34.4325 21.505 34.2075 21.48 33.9875 21.48C33.5175 21.48 33.1075 21.575 32.7575 21.765C32.4075 21.955 32.1175 22.2 31.8875 22.5C31.6575 22.8 31.4875 23.14 31.3775 23.52C31.2675 23.9 31.2125 24.285 31.2125 24.675C31.2125 25.095 31.2775 25.5 31.4075 25.89C31.5375 26.28 31.7225 26.625 31.9625 26.925C32.2125 27.225 32.5075 27.465 32.8475 27.645C33.1975 27.815 33.5875 27.9 34.0175 27.9C34.2375 27.9 34.4625 27.875 34.6925 27.825C34.9325 27.765 35.1575 27.68 35.3675 27.57C35.5875 27.45 35.7875 27.3 35.9675 27.12C36.1475 26.93 36.2925 26.7 36.4025 26.43L38.4125 27.615C38.2525 28.005 38.0125 28.355 37.6925 28.665C37.3825 28.975 37.0225 29.235 36.6125 29.445C36.2025 29.655 35.7675 29.815 35.3075 29.925C34.8475 30.035 34.3975 30.09 33.9575 30.09C33.1875 30.09 32.4775 29.935 31.8275 29.625C31.1875 29.305 30.6325 28.885 30.1625 28.365C29.7025 27.845 29.3425 27.255 29.0825 26.595C28.8325 25.935 28.7075 25.265 28.7075 24.585ZM43.2046 30.15C42.5346 30.15 41.9346 30.04 41.4046 29.82C40.8846 29.6 40.4446 29.305 40.0846 28.935C39.7246 28.555 39.4496 28.12 39.2596 27.63C39.0796 27.13 38.9896 26.61 38.9896 26.07C38.9896 25.53 39.0796 25.015 39.2596 24.525C39.4496 24.025 39.7246 23.59 40.0846 23.22C40.4446 22.84 40.8846 22.54 41.4046 22.32C41.9346 22.09 42.5346 21.975 43.2046 21.975C43.8746 21.975 44.4696 22.09 44.9896 22.32C45.5096 22.54 45.9496 22.84 46.3096 23.22C46.6696 23.59 46.9446 24.025 47.1346 24.525C47.3246 25.015 47.4196 25.53 47.4196 26.07C47.4196 26.61 47.3246 27.13 47.1346 27.63C46.9546 28.12 46.6846 28.555 46.3246 28.935C45.9646 29.305 45.5196 29.6 44.9896 29.82C44.4696 30.04 43.8746 30.15 43.2046 30.15ZM41.4496 26.07C41.4496 26.69 41.6146 27.19 41.9446 27.57C42.2746 27.94 42.6946 28.125 43.2046 28.125C43.4546 28.125 43.6846 28.075 43.8946 27.975C44.1046 27.875 44.2846 27.735 44.4346 27.555C44.5946 27.375 44.7196 27.16 44.8096 26.91C44.8996 26.65 44.9446 26.37 44.9446 26.07C44.9446 25.45 44.7796 24.955 44.4496 24.585C44.1196 24.205 43.7046 24.015 43.2046 24.015C42.9546 24.015 42.7196 24.065 42.4996 24.165C42.2896 24.265 42.1046 24.405 41.9446 24.585C41.7946 24.765 41.6746 24.985 41.5846 25.245C41.4946 25.495 41.4496 25.77 41.4496 26.07ZM51.8799 30.15C51.3399 30.15 50.8399 30.05 50.3799 29.85C49.9299 29.64 49.5399 29.35 49.2099 28.98C48.8799 28.61 48.6199 28.18 48.4299 27.69C48.2499 27.19 48.1599 26.645 48.1599 26.055C48.1599 25.485 48.2449 24.95 48.4149 24.45C48.5849 23.95 48.8249 23.52 49.1349 23.16C49.4449 22.79 49.8099 22.5 50.2299 22.29C50.6599 22.08 51.1299 21.975 51.6399 21.975C52.1899 21.975 52.6849 22.105 53.1249 22.365C53.5749 22.625 53.9199 22.975 54.1599 23.415V19.05H56.5599V27.3C56.5599 27.54 56.5949 27.71 56.6649 27.81C56.7449 27.9 56.8799 27.955 57.0699 27.975V30C56.8499 30.05 56.6599 30.08 56.4999 30.09C56.3399 30.11 56.1899 30.12 56.0499 30.12C55.6299 30.12 55.2899 30.035 55.0299 29.865C54.7699 29.685 54.6199 29.43 54.5799 29.1L54.5349 28.695C54.2549 29.185 53.8749 29.55 53.3949 29.79C52.9249 30.03 52.4199 30.15 51.8799 30.15ZM52.5249 28.125C52.8549 28.125 53.1699 28.03 53.4699 27.84C53.7799 27.64 54.0149 27.37 54.1749 27.03V25.38C54.0249 24.98 53.7799 24.655 53.4399 24.405C53.1099 24.145 52.7649 24.015 52.4049 24.015C52.1449 24.015 51.9049 24.075 51.6849 24.195C51.4749 24.305 51.2899 24.455 51.1299 24.645C50.9699 24.835 50.8449 25.055 50.7549 25.305C50.6749 25.555 50.6349 25.82 50.6349 26.1C50.6349 26.39 50.6799 26.66 50.7699 26.91C50.8699 27.16 50.9999 27.375 51.1599 27.555C51.3299 27.735 51.5299 27.875 51.7599 27.975C51.9999 28.075 52.2549 28.125 52.5249 28.125ZM62.1894 30.15C61.5294 30.15 60.9344 30.045 60.4044 29.835C59.8844 29.615 59.4394 29.32 59.0694 28.95C58.7094 28.58 58.4344 28.155 58.2444 27.675C58.0544 27.185 57.9594 26.675 57.9594 26.145C57.9594 25.575 58.0544 25.04 58.2444 24.54C58.4344 24.03 58.7094 23.585 59.0694 23.205C59.4294 22.825 59.8694 22.525 60.3894 22.305C60.9194 22.085 61.5194 21.975 62.1894 21.975C62.8594 21.975 63.4544 22.085 63.9744 22.305C64.4944 22.525 64.9344 22.825 65.2944 23.205C65.6544 23.575 65.9244 24.005 66.1044 24.495C66.2944 24.985 66.3894 25.5 66.3894 26.04C66.3894 26.18 66.3844 26.32 66.3744 26.46C66.3644 26.59 66.3494 26.705 66.3294 26.805H60.5094C60.5494 27.335 60.7394 27.74 61.0794 28.02C61.4294 28.29 61.8244 28.425 62.2644 28.425C62.6144 28.425 62.9494 28.34 63.2694 28.17C63.5994 28 63.8194 27.77 63.9294 27.48L65.9694 28.05C65.6594 28.67 65.1794 29.175 64.5294 29.565C63.8794 29.955 63.0994 30.15 62.1894 30.15ZM63.8544 25.32C63.8044 24.82 63.6244 24.425 63.3144 24.135C63.0044 23.845 62.6194 23.7 62.1594 23.7C61.6894 23.7 61.2994 23.85 60.9894 24.15C60.6894 24.44 60.5144 24.83 60.4644 25.32H63.8544ZM67.4621 30V27.555H69.4271V30H67.4621ZM71.066 30V22.125H73.466V30H71.066ZM71.066 21.225V19.05H73.466V21.225H71.066ZM78.8589 30.15C78.1889 30.15 77.5889 30.04 77.0589 29.82C76.5389 29.6 76.0989 29.305 75.7389 28.935C75.3789 28.555 75.1039 28.12 74.9139 27.63C74.7339 27.13 74.6439 26.61 74.6439 26.07C74.6439 25.53 74.7339 25.015 74.9139 24.525C75.1039 24.025 75.3789 23.59 75.7389 23.22C76.0989 22.84 76.5389 22.54 77.0589 22.32C77.5889 22.09 78.1889 21.975 78.8589 21.975C79.5289 21.975 80.1239 22.09 80.6439 22.32C81.1639 22.54 81.6039 22.84 81.9639 23.22C82.3239 23.59 82.5989 24.025 82.7889 24.525C82.9789 25.015 83.0739 25.53 83.0739 26.07C83.0739 26.61 82.9789 27.13 82.7889 27.63C82.6089 28.12 82.3389 28.555 81.9789 28.935C81.6189 29.305 81.1739 29.6 80.6439 29.82C80.1239 30.04 79.5289 30.15 78.8589 30.15ZM77.1039 26.07C77.1039 26.69 77.2689 27.19 77.5989 27.57C77.9289 27.94 78.3489 28.125 78.8589 28.125C79.1089 28.125 79.3389 28.075 79.5489 27.975C79.7589 27.875 79.9389 27.735 80.0889 27.555C80.2489 27.375 80.3739 27.16 80.4639 26.91C80.5539 26.65 80.5989 26.37 80.5989 26.07C80.5989 25.45 80.4339 24.955 80.1039 24.585C79.7739 24.205 79.3589 24.015 78.8589 24.015C78.6089 24.015 78.3739 24.065 78.1539 24.165C77.9439 24.265 77.7589 24.405 77.5989 24.585C77.4489 24.765 77.3289 24.985 77.2389 25.245C77.1489 25.495 77.1039 25.77 77.1039 26.07ZM90.3864 19.35H92.6064L96.4914 30H93.9714L93.1464 27.615H89.8314L89.0214 30H86.5014L90.3864 19.35ZM92.7414 25.92L91.4964 22.155L90.2214 25.92H92.7414ZM102.325 30.15C101.725 30.15 101.205 30.025 100.765 29.775C100.325 29.525 99.9853 29.175 99.7453 28.725V33.195H97.3453V22.125H99.4303V23.4C99.7203 22.95 100.08 22.6 100.51 22.35C100.95 22.1 101.47 21.975 102.07 21.975C102.6 21.975 103.085 22.08 103.525 22.29C103.975 22.5 104.36 22.79 104.68 23.16C105.01 23.52 105.265 23.95 105.445 24.45C105.635 24.94 105.73 25.47 105.73 26.04C105.73 26.63 105.645 27.175 105.475 27.675C105.305 28.175 105.07 28.61 104.77 28.98C104.47 29.34 104.11 29.625 103.69 29.835C103.27 30.045 102.815 30.15 102.325 30.15ZM101.515 28.125C101.775 28.125 102.01 28.07 102.22 27.96C102.44 27.84 102.63 27.685 102.79 27.495C102.95 27.305 103.07 27.085 103.15 26.835C103.24 26.575 103.285 26.305 103.285 26.025C103.285 25.735 103.235 25.47 103.135 25.23C103.045 24.98 102.915 24.765 102.745 24.585C102.585 24.405 102.385 24.265 102.145 24.165C101.915 24.065 101.665 24.015 101.395 24.015C101.065 24.015 100.745 24.115 100.435 24.315C100.135 24.505 99.9053 24.765 99.7453 25.095V26.715C99.9053 27.115 100.145 27.45 100.465 27.72C100.795 27.99 101.145 28.125 101.515 28.125ZM111.92 30.15C111.32 30.15 110.8 30.025 110.36 29.775C109.92 29.525 109.58 29.175 109.34 28.725V33.195H106.94V22.125H109.025V23.4C109.315 22.95 109.675 22.6 110.105 22.35C110.545 22.1 111.065 21.975 111.665 21.975C112.195 21.975 112.68 22.08 113.12 22.29C113.57 22.5 113.955 22.79 114.275 23.16C114.605 23.52 114.86 23.95 115.04 24.45C115.23 24.94 115.325 25.47 115.325 26.04C115.325 26.63 115.24 27.175 115.07 27.675C114.9 28.175 114.665 28.61 114.365 28.98C114.065 29.34 113.705 29.625 113.285 29.835C112.865 30.045 112.41 30.15 111.92 30.15ZM111.11 28.125C111.37 28.125 111.605 28.07 111.815 27.96C112.035 27.84 112.225 27.685 112.385 27.495C112.545 27.305 112.665 27.085 112.745 26.835C112.835 26.575 112.88 26.305 112.88 26.025C112.88 25.735 112.83 25.47 112.73 25.23C112.64 24.98 112.51 24.765 112.34 24.585C112.18 24.405 111.98 24.265 111.74 24.165C111.51 24.065 111.26 24.015 110.99 24.015C110.66 24.015 110.34 24.115 110.03 24.315C109.73 24.505 109.5 24.765 109.34 25.095V26.715C109.5 27.115 109.74 27.45 110.06 27.72C110.39 27.99 110.74 28.125 111.11 28.125ZM116.423 22.995L116.783 21.105H116.108V18.9H118.553V21.15L117.983 22.995H116.423ZM122.994 30.15C122.324 30.15 121.664 30.045 121.014 29.835C120.364 29.615 119.814 29.3 119.364 28.89L120.219 27.42C120.699 27.75 121.164 28.005 121.614 28.185C122.074 28.365 122.514 28.455 122.934 28.455C123.244 28.455 123.484 28.4 123.654 28.29C123.824 28.18 123.909 28.02 123.909 27.81C123.909 27.6 123.799 27.435 123.579 27.315C123.369 27.185 122.994 27.05 122.454 26.91C121.924 26.76 121.474 26.615 121.104 26.475C120.744 26.335 120.449 26.18 120.219 26.01C119.989 25.84 119.824 25.645 119.724 25.425C119.624 25.205 119.574 24.945 119.574 24.645C119.574 24.245 119.654 23.88 119.814 23.55C119.974 23.22 120.194 22.94 120.474 22.71C120.754 22.48 121.084 22.3 121.464 22.17C121.854 22.04 122.274 21.975 122.724 21.975C123.314 21.975 123.864 22.055 124.374 22.215C124.894 22.375 125.394 22.665 125.874 23.085L124.944 24.525C124.494 24.215 124.094 23.99 123.744 23.85C123.394 23.71 123.054 23.64 122.724 23.64C122.464 23.64 122.244 23.695 122.064 23.805C121.884 23.905 121.794 24.07 121.794 24.3C121.794 24.52 121.889 24.685 122.079 24.795C122.279 24.905 122.644 25.025 123.174 25.155C123.734 25.305 124.204 25.455 124.584 25.605C124.974 25.755 125.289 25.925 125.529 26.115C125.769 26.295 125.944 26.505 126.054 26.745C126.164 26.985 126.219 27.27 126.219 27.6C126.219 28.38 125.929 29 125.349 29.46C124.769 29.92 123.984 30.15 122.994 30.15ZM130.861 26.955V24.795H135.481V26.955H130.861ZM140.197 24.585C140.197 23.945 140.317 23.31 140.557 22.68C140.797 22.04 141.147 21.47 141.607 20.97C142.067 20.47 142.627 20.065 143.287 19.755C143.947 19.445 144.697 19.29 145.537 19.29C146.537 19.29 147.402 19.505 148.132 19.935C148.872 20.365 149.422 20.925 149.782 21.615L147.892 22.935C147.772 22.655 147.617 22.425 147.427 22.245C147.247 22.055 147.047 21.905 146.827 21.795C146.607 21.675 146.382 21.595 146.152 21.555C145.922 21.505 145.697 21.48 145.477 21.48C145.007 21.48 144.597 21.575 144.247 21.765C143.897 21.955 143.607 22.2 143.377 22.5C143.147 22.8 142.977 23.14 142.867 23.52C142.757 23.9 142.702 24.285 142.702 24.675C142.702 25.095 142.767 25.5 142.897 25.89C143.027 26.28 143.212 26.625 143.452 26.925C143.702 27.225 143.997 27.465 144.337 27.645C144.687 27.815 145.077 27.9 145.507 27.9C145.727 27.9 145.952 27.875 146.182 27.825C146.422 27.765 146.647 27.68 146.857 27.57C147.077 27.45 147.277 27.3 147.457 27.12C147.637 26.93 147.782 26.7 147.892 26.43L149.902 27.615C149.742 28.005 149.502 28.355 149.182 28.665C148.872 28.975 148.512 29.235 148.102 29.445C147.692 29.655 147.257 29.815 146.797 29.925C146.337 30.035 145.887 30.09 145.447 30.09C144.677 30.09 143.967 29.935 143.317 29.625C142.677 29.305 142.122 28.885 141.652 28.365C141.192 27.845 140.832 27.255 140.572 26.595C140.322 25.935 140.197 25.265 140.197 24.585ZM154.694 30.15C154.024 30.15 153.424 30.04 152.894 29.82C152.374 29.6 151.934 29.305 151.574 28.935C151.214 28.555 150.939 28.12 150.749 27.63C150.569 27.13 150.479 26.61 150.479 26.07C150.479 25.53 150.569 25.015 150.749 24.525C150.939 24.025 151.214 23.59 151.574 23.22C151.934 22.84 152.374 22.54 152.894 22.32C153.424 22.09 154.024 21.975 154.694 21.975C155.364 21.975 155.959 22.09 156.479 22.32C156.999 22.54 157.439 22.84 157.799 23.22C158.159 23.59 158.434 24.025 158.624 24.525C158.814 25.015 158.909 25.53 158.909 26.07C158.909 26.61 158.814 27.13 158.624 27.63C158.444 28.12 158.174 28.555 157.814 28.935C157.454 29.305 157.009 29.6 156.479 29.82C155.959 30.04 155.364 30.15 154.694 30.15ZM152.939 26.07C152.939 26.69 153.104 27.19 153.434 27.57C153.764 27.94 154.184 28.125 154.694 28.125C154.944 28.125 155.174 28.075 155.384 27.975C155.594 27.875 155.774 27.735 155.924 27.555C156.084 27.375 156.209 27.16 156.299 26.91C156.389 26.65 156.434 26.37 156.434 26.07C156.434 25.45 156.269 24.955 155.939 24.585C155.609 24.205 155.194 24.015 154.694 24.015C154.444 24.015 154.209 24.065 153.989 24.165C153.779 24.265 153.594 24.405 153.434 24.585C153.284 24.765 153.164 24.985 153.074 25.245C152.984 25.495 152.939 25.77 152.939 26.07ZM162.484 30.15C161.674 30.15 161.059 29.9 160.639 29.4C160.229 28.89 160.024 28.145 160.024 27.165V22.125H162.424V26.64C162.424 27.12 162.519 27.49 162.709 27.75C162.899 28 163.169 28.125 163.519 28.125C163.839 28.125 164.149 28.04 164.449 27.87C164.749 27.7 165.014 27.405 165.244 26.985V22.125H167.644V27.3C167.644 27.54 167.679 27.71 167.749 27.81C167.829 27.9 167.964 27.955 168.154 27.975V30C167.924 30.05 167.729 30.08 167.569 30.09C167.409 30.11 167.264 30.12 167.134 30.12C166.274 30.12 165.784 29.785 165.664 29.115L165.619 28.635C165.259 29.155 164.809 29.54 164.269 29.79C163.739 30.03 163.144 30.15 162.484 30.15ZM177.093 30H174.693V25.575C174.693 25.055 174.593 24.68 174.393 24.45C174.203 24.21 173.948 24.09 173.628 24.09C173.458 24.09 173.288 24.125 173.118 24.195C172.948 24.265 172.783 24.365 172.623 24.495C172.463 24.615 172.318 24.76 172.188 24.93C172.068 25.1 171.973 25.285 171.903 25.485V30H169.503V22.125H171.663V23.445C171.953 22.975 172.363 22.615 172.893 22.365C173.423 22.105 174.033 21.975 174.723 21.975C175.233 21.975 175.643 22.07 175.953 22.26C176.263 22.44 176.503 22.68 176.673 22.98C176.843 23.27 176.953 23.59 177.003 23.94C177.063 24.29 177.093 24.63 177.093 24.96V30ZM183.715 29.58C183.385 29.72 183.005 29.85 182.575 29.97C182.155 30.09 181.73 30.15 181.3 30.15C181 30.15 180.715 30.11 180.445 30.03C180.185 29.96 179.955 29.845 179.755 29.685C179.555 29.515 179.395 29.295 179.275 29.025C179.165 28.755 179.11 28.43 179.11 28.05V23.94H178.105V22.125H179.11V19.62H181.51V22.125H183.115V23.94H181.51V27.225C181.51 27.485 181.575 27.675 181.705 27.795C181.835 27.905 182 27.96 182.2 27.96C182.38 27.96 182.565 27.93 182.755 27.87C182.945 27.81 183.11 27.745 183.25 27.675L183.715 29.58ZM187.73 30.15C187.19 30.15 186.69 30.05 186.23 29.85C185.78 29.64 185.39 29.35 185.06 28.98C184.73 28.61 184.47 28.18 184.28 27.69C184.1 27.19 184.01 26.645 184.01 26.055C184.01 25.485 184.095 24.95 184.265 24.45C184.435 23.95 184.675 23.52 184.985 23.16C185.295 22.79 185.66 22.5 186.08 22.29C186.51 22.08 186.98 21.975 187.49 21.975C188.04 21.975 188.535 22.105 188.975 22.365C189.425 22.625 189.77 22.975 190.01 23.415V19.05H192.41V27.3C192.41 27.54 192.445 27.71 192.515 27.81C192.595 27.9 192.73 27.955 192.92 27.975V30C192.7 30.05 192.51 30.08 192.35 30.09C192.19 30.11 192.04 30.12 191.9 30.12C191.48 30.12 191.14 30.035 190.88 29.865C190.62 29.685 190.47 29.43 190.43 29.1L190.385 28.695C190.105 29.185 189.725 29.55 189.245 29.79C188.775 30.03 188.27 30.15 187.73 30.15ZM188.375 28.125C188.705 28.125 189.02 28.03 189.32 27.84C189.63 27.64 189.865 27.37 190.025 27.03V25.38C189.875 24.98 189.63 24.655 189.29 24.405C188.96 24.145 188.615 24.015 188.255 24.015C187.995 24.015 187.755 24.075 187.535 24.195C187.325 24.305 187.14 24.455 186.98 24.645C186.82 24.835 186.695 25.055 186.605 25.305C186.525 25.555 186.485 25.82 186.485 26.1C186.485 26.39 186.53 26.66 186.62 26.91C186.72 27.16 186.85 27.375 187.01 27.555C187.18 27.735 187.38 27.875 187.61 27.975C187.85 28.075 188.105 28.125 188.375 28.125ZM198.024 30.15C197.354 30.15 196.754 30.04 196.224 29.82C195.704 29.6 195.264 29.305 194.904 28.935C194.544 28.555 194.269 28.12 194.079 27.63C193.899 27.13 193.809 26.61 193.809 26.07C193.809 25.53 193.899 25.015 194.079 24.525C194.269 24.025 194.544 23.59 194.904 23.22C195.264 22.84 195.704 22.54 196.224 22.32C196.754 22.09 197.354 21.975 198.024 21.975C198.694 21.975 199.289 22.09 199.809 22.32C200.329 22.54 200.769 22.84 201.129 23.22C201.489 23.59 201.764 24.025 201.954 24.525C202.144 25.015 202.239 25.53 202.239 26.07C202.239 26.61 202.144 27.13 201.954 27.63C201.774 28.12 201.504 28.555 201.144 28.935C200.784 29.305 200.339 29.6 199.809 29.82C199.289 30.04 198.694 30.15 198.024 30.15ZM196.269 26.07C196.269 26.69 196.434 27.19 196.764 27.57C197.094 27.94 197.514 28.125 198.024 28.125C198.274 28.125 198.504 28.075 198.714 27.975C198.924 27.875 199.104 27.735 199.254 27.555C199.414 27.375 199.539 27.16 199.629 26.91C199.719 26.65 199.764 26.37 199.764 26.07C199.764 25.45 199.599 24.955 199.269 24.585C198.939 24.205 198.524 24.015 198.024 24.015C197.774 24.015 197.539 24.065 197.319 24.165C197.109 24.265 196.924 24.405 196.764 24.585C196.614 24.765 196.494 24.985 196.404 25.245C196.314 25.495 196.269 25.77 196.269 26.07ZM212.856 22.125H215.136L211.881 30H209.916L208.701 26.76L207.486 30H205.521L202.266 22.125H204.531L206.676 27.78L207.411 25.635L206.016 22.125H207.936L208.701 24.495L209.451 22.125H211.371L209.991 25.635L210.726 27.78L212.856 22.125ZM223.485 30H221.085V25.575C221.085 25.055 220.985 24.68 220.785 24.45C220.595 24.21 220.34 24.09 220.02 24.09C219.85 24.09 219.68 24.125 219.51 24.195C219.34 24.265 219.175 24.365 219.015 24.495C218.855 24.615 218.71 24.76 218.58 24.93C218.46 25.1 218.365 25.285 218.295 25.485V30H215.895V22.125H218.055V23.445C218.345 22.975 218.755 22.615 219.285 22.365C219.815 22.105 220.425 21.975 221.115 21.975C221.625 21.975 222.035 22.07 222.345 22.26C222.655 22.44 222.895 22.68 223.065 22.98C223.235 23.27 223.345 23.59 223.395 23.94C223.455 24.29 223.485 24.63 223.485 24.96V30ZM236.466 21.51H233.226V30H230.766V21.51H227.511V19.35H236.466V21.51ZM237.472 30V22.125H239.872V30H237.472ZM237.472 21.225V19.05H239.872V21.225H237.472ZM253.965 30H251.565V25.575C251.565 25.055 251.47 24.68 251.28 24.45C251.09 24.21 250.845 24.09 250.545 24.09C250.385 24.09 250.22 24.125 250.05 24.195C249.89 24.265 249.74 24.365 249.6 24.495C249.46 24.615 249.33 24.76 249.21 24.93C249.1 25.1 249.01 25.285 248.94 25.485V30H246.54V25.575C246.54 25.055 246.445 24.68 246.255 24.45C246.065 24.21 245.82 24.09 245.52 24.09C245.2 24.09 244.885 24.22 244.575 24.48C244.275 24.73 244.055 25.065 243.915 25.485V30H241.515V22.125H243.675V23.445C243.965 22.965 244.355 22.6 244.845 22.35C245.345 22.1 245.925 21.975 246.585 21.975C246.915 21.975 247.2 22.015 247.44 22.095C247.69 22.175 247.905 22.285 248.085 22.425C248.265 22.565 248.41 22.73 248.52 22.92C248.63 23.1 248.71 23.295 248.76 23.505C249.06 23.015 249.455 22.64 249.945 22.38C250.435 22.11 250.995 21.975 251.625 21.975C252.125 21.975 252.525 22.07 252.825 22.26C253.135 22.44 253.375 22.68 253.545 22.98C253.715 23.27 253.825 23.59 253.875 23.94C253.935 24.29 253.965 24.63 253.965 24.96V30ZM259.299 30.15C258.639 30.15 258.044 30.045 257.514 29.835C256.994 29.615 256.549 29.32 256.179 28.95C255.819 28.58 255.544 28.155 255.354 27.675C255.164 27.185 255.069 26.675 255.069 26.145C255.069 25.575 255.164 25.04 255.354 24.54C255.544 24.03 255.819 23.585 256.179 23.205C256.539 22.825 256.979 22.525 257.499 22.305C258.029 22.085 258.629 21.975 259.299 21.975C259.969 21.975 260.564 22.085 261.084 22.305C261.604 22.525 262.044 22.825 262.404 23.205C262.764 23.575 263.034 24.005 263.214 24.495C263.404 24.985 263.499 25.5 263.499 26.04C263.499 26.18 263.494 26.32 263.484 26.46C263.474 26.59 263.459 26.705 263.439 26.805H257.619C257.659 27.335 257.849 27.74 258.189 28.02C258.539 28.29 258.934 28.425 259.374 28.425C259.724 28.425 260.059 28.34 260.379 28.17C260.709 28 260.929 27.77 261.039 27.48L263.079 28.05C262.769 28.67 262.289 29.175 261.639 29.565C260.989 29.955 260.209 30.15 259.299 30.15ZM260.964 25.32C260.914 24.82 260.734 24.425 260.424 24.135C260.114 23.845 259.729 23.7 259.269 23.7C258.799 23.7 258.409 23.85 258.099 24.15C257.799 24.44 257.624 24.83 257.574 25.32H260.964ZM269.581 24.18C269.001 24.19 268.476 24.285 268.006 24.465C267.536 24.645 267.196 24.915 266.986 25.275V30H264.586V22.125H266.791V23.715C267.061 23.185 267.406 22.77 267.826 22.47C268.256 22.17 268.711 22.015 269.191 22.005C269.301 22.005 269.381 22.005 269.431 22.005C269.481 22.005 269.531 22.01 269.581 22.02V24.18ZM282.727 27.27C282.727 27.73 282.632 28.13 282.442 28.47C282.252 28.81 281.992 29.095 281.662 29.325C281.332 29.545 280.947 29.715 280.507 29.835C280.067 29.945 279.602 30 279.112 30H273.922V19.35H279.847C280.217 19.35 280.552 19.43 280.852 19.59C281.152 19.75 281.407 19.96 281.617 20.22C281.827 20.47 281.987 20.76 282.097 21.09C282.217 21.41 282.277 21.74 282.277 22.08C282.277 22.59 282.147 23.07 281.887 23.52C281.637 23.97 281.257 24.31 280.747 24.54C281.357 24.72 281.837 25.04 282.187 25.5C282.547 25.96 282.727 26.55 282.727 27.27ZM280.222 26.775C280.222 26.445 280.127 26.165 279.937 25.935C279.747 25.705 279.507 25.59 279.217 25.59H276.382V27.915H279.112C279.432 27.915 279.697 27.81 279.907 27.6C280.117 27.39 280.222 27.115 280.222 26.775ZM276.382 21.45V23.655H278.797C279.067 23.655 279.307 23.565 279.517 23.385C279.727 23.205 279.832 22.925 279.832 22.545C279.832 22.195 279.737 21.925 279.547 21.735C279.367 21.545 279.147 21.45 278.887 21.45H276.382ZM286.216 30.15C285.826 30.15 285.461 30.09 285.121 29.97C284.791 29.84 284.506 29.665 284.266 29.445C284.026 29.215 283.836 28.95 283.696 28.65C283.556 28.34 283.486 28.005 283.486 27.645C283.486 27.255 283.566 26.9 283.726 26.58C283.896 26.26 284.131 25.985 284.431 25.755C284.731 25.525 285.086 25.345 285.496 25.215C285.906 25.085 286.361 25.02 286.861 25.02C287.191 25.02 287.511 25.05 287.821 25.11C288.131 25.16 288.401 25.24 288.631 25.35V24.99C288.631 24.08 288.106 23.625 287.056 23.625C286.626 23.625 286.216 23.7 285.826 23.85C285.436 23.99 285.026 24.205 284.596 24.495L283.891 22.995C284.411 22.655 284.951 22.4 285.511 22.23C286.071 22.06 286.666 21.975 287.296 21.975C288.486 21.975 289.406 22.255 290.056 22.815C290.706 23.375 291.031 24.195 291.031 25.275V27.3C291.031 27.54 291.066 27.71 291.136 27.81C291.216 27.9 291.351 27.955 291.541 27.975V30C291.331 30.05 291.141 30.08 290.971 30.09C290.801 30.11 290.646 30.12 290.506 30.12C290.056 30.12 289.716 30.035 289.486 29.865C289.256 29.685 289.111 29.435 289.051 29.115L289.006 28.755C288.656 29.205 288.236 29.55 287.746 29.79C287.266 30.03 286.756 30.15 286.216 30.15ZM286.921 28.425C287.181 28.425 287.431 28.38 287.671 28.29C287.921 28.2 288.126 28.08 288.286 27.93C288.516 27.75 288.631 27.56 288.631 27.36V26.61C288.421 26.53 288.191 26.47 287.941 26.43C287.701 26.38 287.476 26.355 287.266 26.355C286.826 26.355 286.461 26.455 286.171 26.655C285.891 26.855 285.751 27.115 285.751 27.435C285.751 27.725 285.861 27.965 286.081 28.155C286.301 28.335 286.581 28.425 286.921 28.425ZM300.36 30H297.96V25.575C297.96 25.055 297.86 24.68 297.66 24.45C297.47 24.21 297.215 24.09 296.895 24.09C296.725 24.09 296.555 24.125 296.385 24.195C296.215 24.265 296.05 24.365 295.89 24.495C295.73 24.615 295.585 24.76 295.455 24.93C295.335 25.1 295.24 25.285 295.17 25.485V30H292.77V22.125H294.93V23.445C295.22 22.975 295.63 22.615 296.16 22.365C296.69 22.105 297.3 21.975 297.99 21.975C298.5 21.975 298.91 22.07 299.22 22.26C299.53 22.44 299.77 22.68 299.94 22.98C300.11 23.27 300.22 23.59 300.27 23.94C300.33 24.29 300.36 24.63 300.36 24.96V30ZM309.545 30H307.145V25.575C307.145 25.055 307.045 24.68 306.845 24.45C306.655 24.21 306.4 24.09 306.08 24.09C305.91 24.09 305.74 24.125 305.57 24.195C305.4 24.265 305.235 24.365 305.075 24.495C304.915 24.615 304.77 24.76 304.64 24.93C304.52 25.1 304.425 25.285 304.355 25.485V30H301.955V22.125H304.115V23.445C304.405 22.975 304.815 22.615 305.345 22.365C305.875 22.105 306.485 21.975 307.175 21.975C307.685 21.975 308.095 22.07 308.405 22.26C308.715 22.44 308.955 22.68 309.125 22.98C309.295 23.27 309.405 23.59 309.455 23.94C309.515 24.29 309.545 24.63 309.545 24.96V30ZM314.904 30.15C314.244 30.15 313.649 30.045 313.119 29.835C312.599 29.615 312.154 29.32 311.784 28.95C311.424 28.58 311.149 28.155 310.959 27.675C310.769 27.185 310.674 26.675 310.674 26.145C310.674 25.575 310.769 25.04 310.959 24.54C311.149 24.03 311.424 23.585 311.784 23.205C312.144 22.825 312.584 22.525 313.104 22.305C313.634 22.085 314.234 21.975 314.904 21.975C315.574 21.975 316.169 22.085 316.689 22.305C317.209 22.525 317.649 22.825 318.009 23.205C318.369 23.575 318.639 24.005 318.819 24.495C319.009 24.985 319.104 25.5 319.104 26.04C319.104 26.18 319.099 26.32 319.089 26.46C319.079 26.59 319.064 26.705 319.044 26.805H313.224C313.264 27.335 313.454 27.74 313.794 28.02C314.144 28.29 314.539 28.425 314.979 28.425C315.329 28.425 315.664 28.34 315.984 28.17C316.314 28 316.534 27.77 316.644 27.48L318.684 28.05C318.374 28.67 317.894 29.175 317.244 29.565C316.594 29.955 315.814 30.15 314.904 30.15ZM316.569 25.32C316.519 24.82 316.339 24.425 316.029 24.135C315.719 23.845 315.334 23.7 314.874 23.7C314.404 23.7 314.014 23.85 313.704 24.15C313.404 24.44 313.229 24.83 313.179 25.32H316.569ZM325.187 24.18C324.607 24.19 324.082 24.285 323.612 24.465C323.142 24.645 322.802 24.915 322.592 25.275V30H320.192V22.125H322.397V23.715C322.667 23.185 323.012 22.77 323.432 22.47C323.862 22.17 324.317 22.015 324.797 22.005C324.907 22.005 324.987 22.005 325.037 22.005C325.087 22.005 325.137 22.01 325.187 22.02V24.18Z" fill="#4F4C4C"/>
</svg>
